<svg width="200" height="214" viewBox="0 0 200 214" fill="none" xmlns="http://www.w3.org/2000/svg">
<path d="M73.4111 182.324C71.1706 182.654 68.6225 182.466 65.8108 181.947C65.5472 181.617 65.02 180.863 64.2292 180.109C63.6581 179.26 62.9991 178.129 62.2523 176.809C60.8904 174.405 60.7146 172.237 60.5389 170.163C60.2753 167.476 60.0557 164.884 57.4636 162.338C52.2357 157.106 41.6919 147.207 41.604 147.113L38.397 144.096L40.5497 148.056C40.5936 148.15 46.9199 159.699 48.4136 164.082C48.5454 164.507 48.7211 164.978 48.8968 165.496C50.4345 170.352 52.8068 177.705 59.2649 178.883C60.4071 179.072 61.4176 179.685 62.2523 180.297C62.472 180.486 62.6916 180.627 62.8673 180.816C62.9991 180.91 63.1309 181.052 63.2188 181.146C63.3067 181.24 63.3506 181.334 63.4385 181.429C58.0787 180.062 52.1478 177.563 46.7002 174.5C46.6563 174.405 46.5684 174.311 46.4805 174.17C46.2609 173.887 46.0851 173.604 45.8655 173.321C45.514 172.19 45.2944 170.823 45.2065 169.267C44.8111 162.998 41.1647 157.436 38.1334 153.901C34.8824 150.083 31.7632 147.773 31.6314 147.679L29.1712 145.841L30.8406 148.527C30.8406 148.574 32.4221 151.167 33.3008 156.116C34.2673 161.584 36.2882 165.685 39.1878 168.089C41.0329 169.597 42.4827 171.059 43.9764 172.897C41.7798 171.577 39.7149 170.163 37.8698 168.749C30.8406 163.422 28.3364 158.992 26.667 154.561C26.667 154.419 26.667 154.278 26.667 154.137C26.667 153.759 26.667 153.288 26.667 152.817C26.667 152.77 26.667 152.77 26.667 152.722C27.0624 150.696 27.985 147.113 30.4013 142.73C34.5748 135.141 31.3238 128.164 29.5226 124.441C29.3469 124.016 29.1272 123.639 28.9954 123.309C27.5456 120.01 24.2507 114.448 24.1189 114.212L21.6587 110.064L23.1085 114.778C23.2403 115.155 23.3281 115.532 23.4599 115.909C24.3386 118.643 24.9536 120.67 24.2068 124.393C24.0311 125.383 23.8114 126.279 23.5917 127.127C22.8888 130.191 22.2738 132.878 22.7131 136.555C23.0206 139.147 23.9871 141.363 24.8218 143.295C25.3051 144.426 25.7444 145.416 25.9641 146.312C25.9201 146.689 25.9201 147.066 25.8762 147.49C25.8323 148.056 25.8323 148.622 25.7883 149.187C25.6126 149.564 25.4369 150.036 25.349 150.978C25.0854 150.224 24.8658 149.47 24.5582 148.716C23.416 145.558 22.7131 143.059 22.0541 140.844C21.3951 138.676 20.8679 136.79 20.0771 134.763C19.9453 132.878 19.9453 126.703 20.6043 122.979C22.2738 113.646 11.686 99.411 11.2467 98.7982L9.09402 95.9229L10.0605 99.5053C10.0605 99.5524 11.9496 106.387 11.071 111.431C10.2802 116.05 9.79694 121.471 11.8178 126.467C12.8283 128.966 14.937 131.888 15.8157 133.019C17.0897 134.716 17.9244 135.612 18.4516 136.13C19.1106 137.874 19.5939 139.618 20.165 141.551C20.824 143.767 21.5708 146.265 22.7131 149.517C23.0206 150.319 23.2842 151.167 23.5478 151.968C24.9097 156.116 26.3155 160.311 30.6209 165.072C28.3364 164.365 24.7779 162.574 22.8449 158.332C20.9558 154.184 20.3407 151.685 19.8575 149.659C19.4181 147.867 19.0667 146.406 17.9684 144.709C15.1128 140.278 4.78864 135.376 4.34931 135.141L0 133.114L3.73426 136.225C5.93088 138.063 7.86391 143.342 9.40155 147.585C9.92873 148.999 10.412 150.319 10.8513 151.45C12.7843 156.116 17.529 161.348 21.7026 163.375C25.0415 164.978 26.9306 165.874 30.9284 166.486C31.4117 166.628 31.851 166.722 32.2025 166.769C33.4326 167.948 34.8824 169.173 36.5518 170.493C38.7484 172.143 50.4345 179.166 56.3653 181.429C55.4427 181.664 54.2566 181.9 53.0265 182.089C49.7755 182.56 47.1835 182.324 45.4262 181.381C42.8781 180.062 41.7798 179.025 40.6814 178.035C39.4074 176.904 38.2212 175.819 35.0581 174.547C29.3469 172.284 17.0897 170.729 16.5625 170.682L12.345 170.163L16.255 171.907C19.3303 173.274 22.4056 175.914 26.4034 179.496L26.6231 179.685C30.577 183.22 35.4535 187.604 42.6584 186.567C43.1417 186.519 43.6249 186.425 44.1082 186.284C45.9533 185.859 47.5349 185.482 48.9408 185.152C53.5097 184.115 56.0578 183.55 58.4741 182.324C58.562 182.277 58.6059 182.277 58.6938 182.23C61.2858 183.126 63.8338 183.785 66.2501 184.163L66.8213 184.257C69.2375 184.634 71.522 184.681 73.499 184.398C73.499 184.398 73.499 184.398 73.5429 184.398L73.4111 182.324ZM60.1435 176.196C59.7042 175.631 59.3088 175.065 58.9134 174.452C58.518 173.84 58.0787 173.227 57.6394 172.661C57.4197 172.378 57.2001 172.048 56.9804 171.766C56.7607 171.483 56.5411 171.2 56.3214 170.917C55.8821 170.399 55.4867 169.88 55.0913 169.362C54.9156 169.126 54.6959 168.89 54.5202 168.655C54.3444 168.419 54.1687 168.183 54.0369 167.948C53.9051 167.712 53.7294 167.476 53.5976 167.288C53.4658 167.052 53.334 166.863 53.2461 166.675C53.0265 166.298 52.8507 165.921 52.7189 165.638C52.4114 165.025 52.2796 164.695 52.2796 164.695C52.2796 164.695 52.3675 165.072 52.5432 165.732C52.6311 166.062 52.7629 166.439 52.9386 166.863C53.0265 167.099 53.1143 167.288 53.2022 167.57C53.334 167.806 53.4219 168.042 53.5537 168.325C53.6855 168.56 53.8173 168.843 53.993 169.126C54.1687 169.409 54.3005 169.645 54.4762 169.927C54.8277 170.446 55.2231 171.011 55.6185 171.577C55.7942 171.86 56.0139 172.143 56.1896 172.426C56.3653 172.708 56.585 173.038 56.7607 173.321C57.1561 173.934 57.5515 174.547 57.9469 175.159C58.3423 175.772 58.7816 176.385 59.2209 176.998C59.3088 177.139 59.4406 177.281 59.5285 177.422C59.4845 177.422 59.4845 177.422 59.4406 177.422C53.7733 176.385 51.5767 169.503 50.083 164.978C49.9073 164.459 49.7755 163.988 49.5997 163.517C48.6332 160.641 45.7337 154.985 43.7128 151.12C47.2713 154.467 52.9825 159.982 56.4532 163.375C58.6498 165.591 58.8695 167.759 59.0891 170.304C59.2649 172.19 59.4406 174.311 60.5389 176.621L60.1435 176.196ZM19.3303 122.744C18.891 125.289 18.7152 129.248 18.7152 132.171C18.7152 132.171 18.7152 132.171 18.7152 132.124C18.5834 131.558 18.4516 130.945 18.2759 130.285C18.1002 129.626 17.9684 128.919 17.7926 128.211C17.6169 127.504 17.4851 126.75 17.3094 125.996C17.1776 125.242 17.0019 124.488 16.8701 123.686C16.7822 123.309 16.7383 122.932 16.6504 122.555C16.6065 122.178 16.5625 121.754 16.5186 121.377C16.4307 120.622 16.3429 119.821 16.255 119.114C16.1671 118.36 16.0353 117.653 15.9035 116.993C15.8596 116.663 15.8157 116.333 15.7278 116.003C15.64 115.673 15.596 115.39 15.5082 115.108C15.3764 114.542 15.2446 113.976 15.1128 113.505C14.981 113.033 14.8052 112.656 14.7174 112.326C14.4977 111.667 14.322 111.337 14.322 111.337C14.322 111.337 14.3659 111.714 14.4977 112.421C14.5416 112.751 14.6295 113.175 14.7174 113.646C14.7613 114.118 14.8492 114.683 14.8931 115.249C14.937 115.532 14.981 115.862 15.0249 116.144C15.0688 116.474 15.0688 116.804 15.1128 117.134C15.1567 117.794 15.2446 118.501 15.2885 119.256C15.3324 119.633 15.3324 120.01 15.3764 120.387C15.4203 120.764 15.4203 121.141 15.4642 121.565C15.5082 121.942 15.5521 122.367 15.596 122.744C15.64 123.121 15.7278 123.545 15.7718 123.969C15.9035 124.77 16.0793 125.525 16.255 126.326C16.4307 127.08 16.6504 127.834 16.8261 128.541C17.0458 129.248 17.2655 129.956 17.4412 130.568C17.6608 131.228 17.8805 131.794 18.1002 132.359C18.3198 132.925 18.5395 133.396 18.7152 133.868C18.7152 133.915 18.7592 133.962 18.7592 134.009C18.7592 134.104 18.7592 134.198 18.7592 134.292C17.1776 132.501 14.278 128.636 13.1358 125.807C11.2467 121.141 11.7739 116.003 12.4768 111.619C13.004 108.603 12.6086 105.067 12.1693 102.522C15.1567 107.141 20.4725 116.427 19.3303 122.744ZM26.5352 138.299C26.4913 139.289 26.4473 140.42 26.4034 141.645C26.4034 141.975 26.3595 142.258 26.3155 142.541C26.2716 142.871 26.2716 143.154 26.2277 143.484V143.531C26.0959 143.248 26.008 142.965 25.8762 142.682C25.0854 140.844 24.1628 138.723 23.8553 136.272C23.416 132.831 24.031 130.238 24.69 127.316C24.9097 126.42 25.0854 125.525 25.3051 124.535C25.7444 122.225 25.7444 120.481 25.4369 118.926C26.3595 120.575 27.326 122.414 27.941 123.828C28.0728 124.158 28.2925 124.535 28.4682 125.006C30.1377 128.541 33.2129 135.093 29.3908 142.117C28.5122 143.719 27.8092 145.228 27.2381 146.642C27.1942 146.5 27.1942 146.359 27.1503 146.17C27.1503 145.982 27.1942 145.793 27.1942 145.605C27.2381 144.945 27.2821 144.285 27.3699 143.625C27.4138 143.295 27.4139 142.965 27.4139 142.635C27.4139 142.305 27.4139 141.975 27.4139 141.645C27.4139 141.504 27.4139 141.315 27.4139 141.174C27.4139 140.985 27.4138 140.844 27.3699 140.703C27.3699 140.42 27.326 140.09 27.326 139.807C27.326 139.524 27.2821 139.241 27.2821 138.959C27.2381 138.676 27.2381 138.44 27.1942 138.157C27.1503 137.922 27.1503 137.686 27.1063 137.45C27.0624 137.215 27.0185 137.026 26.9745 136.79C26.8867 136.366 26.7988 136.036 26.7109 135.8C26.5352 135.235 26.4473 134.952 26.4473 134.952C26.4473 134.952 26.4473 135.282 26.4913 135.848C26.4913 136.13 26.5352 136.507 26.5352 136.885C26.5352 137.073 26.5352 137.309 26.5352 137.497C26.5352 137.827 26.5352 138.063 26.5352 138.299ZM22.3177 162.244C18.4077 160.359 13.7948 155.268 11.9936 150.931C11.5542 149.847 11.071 148.527 10.5438 147.113C9.35761 143.814 7.99571 140.137 6.45807 137.592C9.70907 139.336 15.2446 142.588 17.0897 145.463C18.0562 146.972 18.3638 148.245 18.8031 149.989C19.3303 152.063 19.9453 154.655 21.8784 158.897C22.2298 159.652 22.6252 160.311 23.0206 160.924C22.757 160.594 22.5373 160.311 22.2738 159.981C21.8784 159.463 21.439 158.85 21.0436 158.285C20.6043 157.719 20.2089 157.106 19.8135 156.493C19.4181 155.881 19.0228 155.268 18.6274 154.655C18.2759 154.042 17.9244 153.477 17.6169 152.817C17.3094 152.204 17.0019 151.591 16.6943 151.026C16.5625 150.743 16.3868 150.46 16.255 150.177C16.0793 149.941 15.9035 149.659 15.7718 149.423C15.596 149.187 15.4642 148.952 15.3324 148.763C15.1567 148.574 14.981 148.386 14.8492 148.244C14.5416 147.915 14.278 147.632 14.0584 147.396C13.6191 146.925 13.3555 146.689 13.3555 146.689C13.3555 146.689 13.5312 147.019 13.8827 147.585C14.0584 147.867 14.278 148.197 14.4977 148.574C14.6295 148.763 14.7613 148.952 14.8931 149.187C15.0249 149.423 15.1128 149.659 15.2446 149.894C15.3764 150.13 15.5082 150.413 15.64 150.648C15.7717 150.931 15.8596 151.214 15.9914 151.497C16.255 152.11 16.4747 152.675 16.7822 153.382C16.914 153.712 17.0897 154.042 17.2655 154.372C17.4412 154.702 17.6169 155.032 17.7926 155.362C18.1441 156.022 18.5395 156.635 18.9788 157.295C19.4181 157.907 19.8135 158.52 20.2529 159.133C20.4725 159.416 20.6922 159.699 20.9118 159.981C21.1315 160.264 21.3512 160.547 21.6148 160.783C22.0541 161.301 22.5373 161.773 22.9767 162.244C23.1963 162.48 23.4599 162.668 23.6796 162.904C23.1963 162.668 22.757 162.48 22.3177 162.244ZM25.5687 163.705C25.4808 163.611 25.349 163.517 25.2612 163.375C25.393 163.47 25.5248 163.611 25.6566 163.705C25.6126 163.752 25.5687 163.752 25.5687 163.705ZM43.8446 169.88C43.6249 169.456 43.3174 168.985 43.0538 168.56L42.6145 167.995C42.4827 167.806 42.3069 167.618 42.1752 167.429C41.9116 167.052 41.604 166.675 41.3844 166.345C41.1208 165.968 40.9011 165.638 40.6814 165.261C40.4618 164.884 40.2861 164.554 40.1103 164.271C39.7589 163.658 39.4513 163.093 39.2317 162.715C39.012 162.338 38.8802 162.15 38.8802 162.15C38.8802 162.15 38.9242 162.385 39.012 162.857C39.0999 163.281 39.2756 163.894 39.4953 164.601C39.6271 164.978 39.7589 165.355 39.9346 165.732C40.1103 166.109 40.2861 166.533 40.5497 166.958C40.6375 167.193 40.7693 167.382 40.9011 167.57C41.0329 167.759 41.1647 167.995 41.2965 168.183C41.3844 168.278 41.4722 168.419 41.5601 168.513C41.0329 168.042 40.4618 167.57 39.8907 167.052C37.2108 164.837 35.3217 160.971 34.3991 155.833C34.0037 153.477 33.4326 151.638 32.9054 150.319C34.0916 151.356 35.6292 152.864 37.2108 154.749C40.1103 158.143 43.6249 163.47 43.9764 169.409C43.9764 169.739 44.0203 170.022 44.0642 170.304C44.0203 170.163 43.9324 170.022 43.8446 169.88ZM48.8529 183.88C47.4471 184.21 45.8655 184.54 43.9764 185.011C43.5371 185.105 43.0538 185.2 42.6145 185.247C35.9367 186.189 31.4556 182.183 27.4578 178.648L27.2381 178.459C24.4264 175.914 22.0541 173.887 19.7696 172.378C23.8993 172.991 30.8845 174.217 34.7066 175.725C37.694 176.904 38.7484 177.893 40.0225 178.978C41.1208 179.967 42.307 181.052 44.9868 182.466C45.0747 182.513 45.1626 182.56 45.2504 182.607C44.9868 182.56 44.7232 182.513 44.4596 182.513C43.8007 182.466 43.0538 182.277 42.3509 182.136C42.0434 182.041 41.6919 181.947 41.3844 181.853C41.2086 181.806 41.0329 181.759 40.9011 181.711L40.4179 181.523C40.1103 181.382 39.7589 181.287 39.4513 181.146C39.1438 181.004 38.8363 180.863 38.5288 180.722C37.9137 180.439 37.3426 180.156 36.8154 179.873C36.2882 179.59 35.761 179.307 35.2778 179.025C34.7945 178.742 34.3552 178.506 34.0037 178.318C33.6083 178.082 33.3008 177.893 32.9933 177.752C32.4661 177.422 32.1146 177.233 32.1146 177.233C32.1146 177.233 32.3782 177.516 32.8615 177.941C33.3447 178.365 34.0476 178.978 34.9263 179.637C35.3656 179.967 35.8489 180.297 36.3761 180.674C36.9033 181.004 37.4744 181.382 38.0894 181.711C38.397 181.853 38.7045 182.041 39.012 182.183C39.3195 182.324 39.671 182.466 40.0225 182.607L40.5497 182.843C40.7254 182.89 40.9011 182.937 41.0768 183.031C41.4283 183.126 41.7798 183.267 42.1752 183.361C42.8781 183.503 43.581 183.644 44.3278 183.691C45.0747 183.785 45.7776 183.833 46.4366 183.833C47.1395 183.88 47.7985 183.833 48.4136 183.833C48.6772 183.833 48.9408 183.833 49.1604 183.785C49.0726 183.833 48.9408 183.833 48.8529 183.88Z" fill="#00A1C2"/>
<path d="M137.465 177.988L136.41 176.904C134.345 179.213 132.149 181.334 129.645 183.361L129.601 183.267C129.601 183.267 128.81 183.455 127.668 183.503C126.306 183.597 124.373 183.503 122.659 182.607C120.682 181.617 115.542 180.674 110.578 180.957C109.216 181.052 107.942 181.193 106.8 181.476L103.373 182.23C99.0238 183.22 95.2456 184.068 94.0154 184.257L89.8419 185.011L94.0154 185.435C94.0594 185.435 98.848 185.954 105.086 187.556C108.689 188.499 112.599 188.923 115.806 188.735C117.124 188.641 118.925 188.452 120.023 187.839C121.254 187.179 124.592 186.048 127.053 185.247C125.251 186.567 123.318 187.839 121.166 189.159C116.465 191.987 111.149 193.59 106.053 194.438C105.877 194.344 105.701 194.25 105.526 194.155C104.691 193.684 103.681 193.118 101.748 190.95C99.1555 188.028 94.2351 186.331 90.7644 186.001C87.3377 185.671 78.3755 181.759 78.2876 181.759L74.3776 180.062L77.7165 182.796C78.1558 183.126 87.9967 191.28 90.5887 192.741C92.3899 193.778 95.2456 194.108 98.0133 194.438C99.3752 194.627 100.693 194.768 101.835 195.004C96.8271 195.475 92.3021 195.287 89.1829 195.051C87.777 194.58 85.185 193.26 82.6809 191.987C78.8588 190.055 74.8609 188.028 72.4885 187.556C70.9509 187.274 68.5346 187.226 65.064 187.415C63.0431 187.509 60.9343 187.698 59.0891 187.886C57.6394 188.028 56.3653 188.122 55.3988 188.169C54.9595 188.216 54.608 188.216 54.3005 188.216H50.3466L54.0369 189.63C54.1248 189.678 64.8004 193.731 67.3924 195.334C70.1162 197.031 72.4885 197.879 77.4968 197.644C78.5952 197.596 79.9571 197.502 81.4068 197.455C86.1955 197.172 88.5678 197.031 89.754 196.889C95.1138 197.267 102.934 197.172 110.666 195.24C110.139 195.617 109.48 196.088 108.777 196.559C107.635 197.361 105.833 197.785 103.373 197.926C101.22 198.068 98.9359 197.926 97.0907 197.785C95.8167 197.691 94.6744 197.644 93.9276 197.691H93.8397C81.0114 198.633 76.2228 203.771 76.0031 203.96L74.9488 205.091L76.3985 204.95C81.5826 204.478 84.4821 205.185 87.0302 205.751C88.8314 206.175 90.3691 206.505 92.3021 206.411C95.2016 206.27 98.7162 204.997 103.637 202.31C107.019 200.472 113.653 194.297 113.653 194.297C114.444 194.061 118.134 192.647 118.266 192.553C118.266 192.553 120.726 191.327 121.913 190.62C125.647 188.358 128.898 186.048 131.753 183.597C131.666 183.88 131.534 184.257 131.358 184.587C130.523 186.567 129.03 189.159 126.789 190.432C125.647 191.092 124.68 191.516 123.714 191.94C121.254 193.071 119.145 194.014 116.201 197.738C113.653 200.943 109.743 204.997 106.8 207.872C106.8 207.872 102.978 211.549 102.934 211.596L100.342 214L103.505 212.586C103.593 212.539 112.335 208.674 118.881 204.148C124.285 200.472 125.735 197.785 127.58 194.344C128.063 193.496 128.546 192.6 129.117 191.61C130.655 189.018 131.709 186.614 132.325 185.011C132.984 183.455 133.291 182.23 133.291 182.183H133.203C135.048 180.674 136.191 179.449 137.465 177.988ZM122.615 184.54C122.044 184.587 121.429 184.587 120.814 184.634C120.199 184.634 119.584 184.681 118.969 184.728C117.739 184.822 116.509 184.775 115.367 184.822C114.795 184.822 114.224 184.822 113.697 184.822C113.17 184.822 112.687 184.822 112.203 184.775C111.764 184.728 111.325 184.728 110.929 184.681C110.578 184.634 110.227 184.634 109.963 184.587C109.436 184.54 109.128 184.492 109.128 184.492C109.128 184.492 109.436 184.634 109.919 184.822C110.183 184.917 110.49 185.011 110.842 185.152C111.193 185.247 111.632 185.388 112.072 185.482C112.511 185.577 113.038 185.671 113.565 185.718C114.093 185.812 114.664 185.859 115.235 185.907C115.806 185.907 116.421 186.001 117.036 186.001C117.651 186.001 118.266 186.001 118.925 186.001C119.54 186.001 120.155 185.907 120.814 185.907C121.385 185.859 121.956 185.765 122.528 185.718C121.297 186.189 120.199 186.614 119.54 186.944C118.793 187.321 117.475 187.604 115.762 187.698C112.643 187.886 108.865 187.462 105.35 186.566C102.275 185.765 99.507 185.247 97.53 184.917C99.1995 184.54 101.308 184.068 103.549 183.597L106.976 182.843C108.03 182.607 109.26 182.466 110.578 182.371C115.191 182.136 120.243 182.937 122.132 183.927C122.747 184.257 123.406 184.445 124.021 184.634C123.626 184.445 123.143 184.492 122.615 184.54ZM94.8502 190.385C95.1577 190.573 95.6409 190.762 96.2121 190.997C96.4757 191.139 96.7832 191.28 97.0907 191.422C97.3982 191.563 97.7058 191.752 98.0572 191.94C98.3648 192.129 98.7162 192.317 99.0677 192.506C99.4191 192.694 99.7706 192.883 100.122 193.118C100.474 193.307 100.825 193.496 101.176 193.637C100.254 193.496 99.2434 193.354 98.233 193.26C95.5531 192.93 92.8293 192.6 91.2038 191.657C89.5783 190.715 84.8775 186.991 81.6704 184.398C84.6139 185.577 88.5678 186.991 90.7205 187.179C94.1033 187.509 98.7162 189.206 101.045 191.799C101.308 192.129 101.616 192.411 101.835 192.647C101.44 192.459 101.089 192.223 100.693 192.034C100.342 191.846 99.9463 191.657 99.5949 191.469C99.4191 191.374 99.2434 191.28 99.0677 191.186C98.8919 191.092 98.7162 190.997 98.4966 190.95C98.1451 190.809 97.7497 190.667 97.3982 190.573C97.0468 190.479 96.6953 190.385 96.4317 190.337C95.8167 190.243 95.2895 190.196 94.938 190.149C94.5866 190.102 94.3669 190.102 94.3669 190.102C94.3669 190.102 94.4987 190.243 94.8502 190.385ZM84.8775 195.051C84.526 194.957 84.1746 194.863 83.8231 194.815C83.4277 194.721 82.9884 194.58 82.5051 194.485C82.0658 194.344 81.5826 194.203 81.0993 194.108C80.616 193.967 80.1328 193.826 79.6495 193.684C78.683 193.401 77.7165 193.118 76.8379 192.883C75.9153 192.647 75.0806 192.364 74.3337 192.176C73.5869 191.987 72.9718 191.846 72.5764 191.752C72.1371 191.657 71.9174 191.61 71.9174 191.61C71.9174 191.61 72.7961 192.129 74.2019 192.741C74.5534 192.883 74.9488 193.071 75.3442 193.213C75.7395 193.354 76.1789 193.543 76.6182 193.731C77.0575 193.873 77.5408 194.061 77.9801 194.203C78.4634 194.344 78.9466 194.485 79.4299 194.674C79.9131 194.815 80.3964 194.957 80.8796 195.051C81.3629 195.192 81.8462 195.287 82.3294 195.381C82.8127 195.475 83.252 195.57 83.6913 195.617C84.0867 195.664 84.4382 195.711 84.7896 195.711V195.805C83.867 195.852 82.7687 195.947 81.4947 195.994C80.0449 196.088 78.683 196.135 77.5847 196.182C72.9279 196.418 70.6873 195.617 68.1832 194.061C66.3819 192.93 61.0661 190.809 57.6394 189.442C58.1226 189.395 58.6498 189.348 59.2209 189.3C61.0661 189.159 63.1309 188.97 65.1518 188.829C68.4907 188.641 70.863 188.688 72.2689 188.97C74.5094 189.395 78.5512 191.469 82.1537 193.307C83.1641 193.826 84.0867 194.297 84.9214 194.721L84.8775 195.051ZM103.197 201.179C98.4087 203.771 95.0259 204.997 92.3021 205.185C90.5009 205.28 89.0511 204.95 87.3377 204.526C85.0532 204.007 82.4173 203.394 78.1998 203.583C80.3525 202.027 85.229 199.435 93.8837 198.822H93.9715C94.6305 198.775 95.7288 198.869 97.0029 198.916C98.892 199.011 101.22 199.152 103.417 199.058C103.856 199.011 104.252 199.011 104.647 198.963C104.515 199.011 104.384 199.058 104.252 199.105C103.988 199.199 103.725 199.293 103.417 199.388C103.153 199.482 102.846 199.576 102.582 199.67C102.319 199.765 102.055 199.859 101.748 199.953C101.484 200.048 101.176 200.142 100.913 200.236C100.649 200.33 100.342 200.378 100.078 200.472C99.507 200.566 98.9798 200.755 98.4087 200.849C97.8815 200.943 97.3543 201.037 96.8271 201.179C96.3439 201.273 95.8606 201.367 95.4213 201.462C94.982 201.556 94.5866 201.603 94.2351 201.65C93.8836 201.697 93.5761 201.744 93.3125 201.792C92.7853 201.839 92.4778 201.886 92.4778 201.886C92.4778 201.886 92.5657 201.886 92.6975 201.933C92.8293 201.933 93.0489 202.027 93.2686 202.027C93.5322 202.074 93.8397 202.074 94.2351 202.122C94.5866 202.122 95.0259 202.169 95.4652 202.169C95.9045 202.169 96.3878 202.169 96.915 202.122C97.4422 202.074 97.9694 202.074 98.5405 201.98C99.1116 201.933 99.6827 201.839 100.254 201.697C100.561 201.65 100.825 201.556 101.133 201.509C101.44 201.415 101.704 201.32 102.011 201.273C102.582 201.085 103.197 200.896 103.725 200.66C104.296 200.425 104.823 200.189 105.35 199.953C105.394 199.953 105.394 199.906 105.438 199.906C104.603 200.33 103.856 200.849 103.197 201.179ZM126.701 193.826C124.856 197.219 123.538 199.67 118.398 203.206C114.356 205.94 109.524 208.485 106.36 209.993C109.348 207.118 114.137 202.263 117.08 198.539C119.804 195.051 121.737 194.203 124.153 193.071C124.988 192.694 125.954 192.27 126.965 191.704C126.833 191.799 126.657 191.893 126.525 191.987C125.866 192.364 125.164 192.741 124.461 193.213C124.109 193.448 123.758 193.684 123.406 193.92C123.231 194.061 123.055 194.203 122.923 194.344C122.835 194.438 122.791 194.438 122.703 194.58L122.484 194.815C122.22 195.098 121.956 195.381 121.693 195.664C121.561 195.805 121.473 195.947 121.341 196.088C121.254 196.229 121.166 196.371 121.034 196.512C120.858 196.795 120.726 197.078 120.595 197.314C120.463 197.549 120.419 197.785 120.375 197.974C120.331 198.162 120.287 198.304 120.287 198.398C120.287 198.492 120.243 198.539 120.243 198.539C120.243 198.539 120.375 198.351 120.551 198.068C120.682 197.926 120.77 197.738 120.946 197.549C121.078 197.361 121.297 197.172 121.473 196.937C121.693 196.748 121.913 196.512 122.176 196.277C122.44 196.041 122.703 195.805 123.011 195.57L123.231 195.381C123.274 195.334 123.362 195.287 123.45 195.192C123.626 195.051 123.758 194.957 123.89 194.863C124.197 194.674 124.549 194.438 124.9 194.203C125.559 193.778 126.262 193.307 126.921 192.836C127.053 192.741 127.141 192.647 127.228 192.6C127.141 193.024 126.921 193.448 126.701 193.826ZM128.415 190.809C128.371 190.856 128.327 190.856 128.283 190.903C128.195 190.95 128.107 190.997 128.019 191.044C128.151 190.95 128.283 190.856 128.415 190.762V190.809Z" fill="#00A1C2"/>
<path d="M41.3844 42.2344C38.7924 43.7899 36.8594 45.5339 34.6188 49.8705C31.2799 56.4696 29.8741 59.2978 29.3469 60.5705C26.4474 64.9542 22.757 71.6004 20.5604 78.9538C20.5165 78.341 20.4725 77.6811 20.4286 76.9269C20.2529 73.9573 23.1524 69.4793 25.0855 66.5097C25.8323 65.3313 26.4034 64.4357 26.7549 63.7758C32.2464 52.4159 30.4452 46.0996 30.4013 45.8639L29.962 44.4498L29.3469 45.8167C27.1942 50.389 25.2612 52.5573 23.5478 54.4899C20.7361 57.648 18.7152 59.9106 18.232 70.1864C18.0563 73.863 19.6378 81.782 19.7257 82.1119H19.7696C19.5939 82.819 18.7152 87.5797 18.7152 90.6436C18.7592 94.6974 18.9788 98.374 19.506 101.815C19.3303 101.626 19.1546 101.391 18.9788 101.155C17.8366 99.6467 16.4747 97.2899 16.5626 94.8859C16.6065 93.6604 16.7383 92.6234 16.8261 91.6335C17.1337 89.041 17.3973 86.8256 15.8157 82.7247C14.4977 79.2837 11.2028 65.6141 11.2028 65.567L10.4999 62.1731L10.0606 65.6612C10.0606 65.7555 8.91831 74.8529 9.3137 82.3476C9.62123 88.5225 11.1149 90.9264 12.9162 93.9432C13.3994 94.6974 13.8387 95.4987 14.3659 96.3943C15.6839 98.7982 17.0897 100.731 18.0563 101.909C18.9788 103.135 19.8136 103.936 19.8575 103.936L19.9014 103.889C20.2529 105.727 20.6483 106.01 21.1755 107.754L22.6252 107.189C21.7466 104.502 21.2194 103.182 20.824 100.212H20.9119C20.9119 100.165 22.0541 96.5357 24.734 94.6502C27.0185 93.0004 31.6753 86.8256 33.3448 81.5934L34.3113 78.5767C35.6732 74.3344 36.8594 70.7049 37.2987 69.5264L38.7924 65.4256L36.2882 69.0551C36.2443 69.1022 33.5205 72.9674 29.259 77.5868C24.6901 82.489 21.8784 87.8626 21.7466 90.2665C21.7027 91.5392 20.9997 94.6974 20.4725 97.1013C20.2968 95.0745 20.2529 92.9533 20.2529 90.6436C20.2529 85.4586 21.5709 80.2736 23.3282 75.6071C23.5039 75.5128 23.6357 75.4185 23.8114 75.3242C24.5583 74.8057 25.5248 74.193 28.2047 73.4859C31.8071 72.496 35.5414 69.0079 37.5183 66.1797C39.4514 63.3987 46.173 57.7894 46.2609 57.6952L49.5558 54.9612L45.7337 56.611C45.2944 56.7996 34.7067 61.419 32.2464 63.0216C30.5331 64.1529 28.8636 66.4154 27.2381 68.6308C26.4913 69.6207 25.7884 70.6106 25.1294 71.4119C27.1503 67.0753 29.3908 63.3987 31.0603 60.9476C32.1146 59.9577 34.3991 58.3079 36.5958 56.7524C40.0225 54.3013 43.5371 51.8031 45.0747 49.9176C45.9973 48.7864 46.9199 47.3723 47.8864 45.911C49.8194 42.9414 51.9721 39.5947 55.1353 37.2379L58.0348 35.0696C58.0348 35.1167 44.0203 40.6317 41.3844 42.2344ZM15.64 91.4921C15.596 92.0106 15.5082 92.6234 15.4642 93.2361C15.4642 92.7176 15.4642 92.1991 15.4642 91.6806C15.4642 91.2564 15.4203 90.8793 15.3764 90.4551C15.3324 90.2194 15.3324 90.0308 15.2885 89.8423L15.2446 89.7009C15.2446 89.6066 15.2007 89.6066 15.2007 89.5595C15.1567 89.4652 15.1567 89.3709 15.1128 89.2767C15.0249 88.8996 14.8931 88.5696 14.8053 88.2397C14.7613 88.0983 14.6735 87.9097 14.6295 87.7683C14.5417 87.6269 14.4977 87.4855 14.4099 87.3441C14.2781 87.0612 14.1023 86.8256 13.9705 86.6841C13.8387 86.4956 13.663 86.3542 13.5312 86.2128C13.2676 85.9771 13.1358 85.8828 13.1358 85.8828C13.1358 85.8828 13.2237 86.0714 13.3555 86.3542C13.3994 86.4956 13.4873 86.6841 13.5752 86.9198C13.663 87.1084 13.7069 87.3912 13.7948 87.6269C13.8387 87.9097 13.9266 88.1925 13.9705 88.5225C14.0145 88.8524 14.0584 89.1824 14.1463 89.5123C14.1463 89.6066 14.1902 89.7009 14.1902 89.7952C14.1902 89.8423 14.1902 89.8894 14.1902 89.8894V90.0308C14.2341 90.2194 14.2341 90.4079 14.2341 90.5494C14.2341 90.8793 14.2781 91.3035 14.2781 91.6806C14.2781 92.4348 14.322 93.2361 14.3659 93.9903C14.3659 94.0375 14.3659 94.1317 14.3659 94.1789C14.1902 93.8489 13.9705 93.5189 13.7948 93.2361C11.9936 90.2665 10.6756 88.0982 10.3681 82.2062C10.1484 77.7282 10.4559 72.6375 10.7195 69.3379C11.5982 73.1088 13.0919 79.1423 14.6295 83.196C16.1672 87.0141 15.9475 88.9938 15.64 91.4921ZM22.8888 90.2665C22.9767 88.4282 25.5248 83.2903 30.0498 78.4352C32.1146 76.2198 33.8719 74.1458 35.1021 72.5903C34.5749 74.193 33.9159 76.1727 33.2569 78.341L32.2904 81.3577C30.7088 86.2599 26.2716 92.2463 24.1189 93.7546C23.6357 94.1317 23.1524 94.5088 22.757 94.933C22.9328 94.556 23.1085 94.226 23.2842 93.8489C23.5478 93.3304 23.8114 92.8119 24.075 92.2934C24.3386 91.7749 24.6022 91.2093 24.9097 90.6908C25.4369 89.6066 26.052 88.5696 26.5792 87.5797C26.8867 87.1084 27.1063 86.5899 27.3699 86.1656C27.6335 85.7414 27.8971 85.3172 28.1168 84.9401C28.3365 84.563 28.5561 84.1859 28.7758 83.9031C28.9954 83.6203 29.1272 83.3374 29.303 83.1018C29.6105 82.6775 29.7862 82.3947 29.7862 82.3947C29.7862 82.3947 29.5666 82.5833 29.1272 82.9132C28.9076 83.0546 28.6879 83.2903 28.4243 83.5731C28.2925 83.7145 28.1607 83.856 28.0289 83.9974C27.8971 84.1388 27.7653 84.3273 27.5896 84.4687C27.2821 84.7987 26.9746 85.1758 26.667 85.6C26.3595 86.0242 26.052 86.4956 25.7005 86.967C25.393 87.4383 25.0415 87.9568 24.7779 88.4753C24.4704 88.9938 24.1629 89.5123 23.8993 90.078C23.5918 90.6436 23.3282 91.1621 23.0646 91.7278C22.8449 92.1991 22.6692 92.6705 22.4495 93.0947C22.7131 91.9163 22.8888 90.9264 22.8888 90.2665ZM20.165 68.348C20.0772 68.678 20.0332 68.9137 19.9454 69.1965C19.8136 69.7621 19.6818 70.3749 19.5939 70.9405C19.506 71.4119 19.4621 71.8833 19.4182 72.3546C19.3742 71.5062 19.3303 70.752 19.3742 70.1392C19.8136 60.3819 21.6148 58.3551 24.3825 55.2912C25.8762 53.6414 27.6335 51.6145 29.5666 47.985C29.7423 50.4833 29.4348 55.6683 25.7884 63.2101C25.5248 63.7758 24.9097 64.7185 24.2068 65.8027C23.0206 67.641 21.5709 69.9035 20.5604 72.119C20.5604 72.0718 20.5604 72.0247 20.6043 71.9775C20.6483 71.6947 20.6922 71.4119 20.7801 71.1762C20.824 70.8934 20.9119 70.6106 20.9558 70.3749C20.9997 70.0921 21.0876 69.8093 21.1315 69.5264C21.2194 69.2436 21.2633 68.9608 21.3512 68.678C21.4391 68.3952 21.483 68.1595 21.5709 67.8767C21.7466 67.3582 21.9223 66.8397 22.098 66.3212C22.2738 65.8027 22.4495 65.3313 22.5813 64.8599C22.757 64.3886 22.8888 63.9643 23.0646 63.5401C23.1964 63.1159 23.3721 62.7859 23.46 62.456C23.5918 62.126 23.6796 61.8432 23.8114 61.6075C24.0311 61.1361 24.1189 60.8533 24.1189 60.8533C24.1189 60.8533 24.075 60.9004 23.9871 60.9947C23.8993 61.089 23.7675 61.2304 23.6357 61.4661C23.5039 61.6546 23.2842 61.9375 23.1085 62.2203C22.9328 62.5031 22.7131 62.8802 22.4934 63.2573C22.2738 63.6344 22.0541 64.0586 21.8345 64.53C21.6148 65.0013 21.3951 65.4727 21.1755 65.9441C20.9558 66.4626 20.7361 66.9811 20.5604 67.5467C20.3407 67.7824 20.2529 68.0652 20.165 68.348ZM28.1168 69.385C29.6544 67.2639 31.236 65.0485 32.7736 64.0586C34.2673 63.1159 39.056 60.9004 42.4827 59.3449C40.374 61.2304 37.738 63.7286 36.5958 65.3784C34.7067 68.1123 31.1481 71.3176 27.9411 72.1661C27.6775 72.2132 27.4578 72.3075 27.2381 72.3546C27.4578 72.2132 27.6775 72.0718 27.8532 71.9304C28.1607 71.6947 28.5122 71.459 28.8197 71.2234L29.0394 71.0348L29.259 70.8463C29.4348 70.7049 29.5666 70.6106 29.7423 70.4692C29.8741 70.3278 30.0498 70.2335 30.1816 70.0921C30.3134 69.9507 30.4452 69.8093 30.577 69.715C30.7088 69.5736 30.8406 69.4322 30.9285 69.3379C31.0603 69.1965 31.1481 69.1022 31.236 68.9608C31.6314 68.4894 31.9389 68.0652 32.1146 67.7352C32.3343 67.4524 32.4222 67.2639 32.4222 67.2639C32.4222 67.2639 32.2464 67.3582 31.9389 67.5938C31.6314 67.7824 31.236 68.1123 30.7527 68.4423C30.5331 68.6308 30.2695 68.8194 30.0059 69.0079C29.8741 69.1022 29.7423 69.1965 29.6105 69.2908C29.4787 69.385 29.303 69.4793 29.1712 69.5736C29.0394 69.6679 28.8636 69.7621 28.7318 69.8564C28.5561 69.9507 28.4243 70.0921 28.2486 70.1864C27.9411 70.422 27.5896 70.6106 27.2821 70.8463C27.0185 71.0348 26.7988 71.2234 26.5352 71.4119C27.0624 70.8463 27.5896 70.0921 28.1168 69.385ZM46.7881 45.1097C45.8655 46.5238 44.9869 47.8908 44.0643 48.9749C42.6584 50.6718 39.056 53.2643 35.8489 55.5269C34.8824 56.1868 34.0477 56.7996 33.3008 57.3652L33.1251 57.1767C33.3448 56.8938 33.6083 56.6582 33.8719 56.3753C34.1355 56.0454 34.487 55.7626 34.7945 55.4326C35.1021 55.1027 35.4535 54.7727 35.761 54.4427C36.1125 54.1128 36.42 53.7357 36.7715 53.4057C37.4744 52.6987 38.1334 51.9916 38.7924 51.3317C39.4514 50.6718 40.0225 50.059 40.5497 49.4934C41.0769 48.9749 41.4723 48.5035 41.7359 48.1736C42.0434 47.8436 42.1752 47.6551 42.1752 47.6551C42.1752 47.6551 41.3405 48.1736 40.1982 49.0692C39.8907 49.3049 39.5832 49.5405 39.2756 49.8234C38.9681 50.1062 38.6166 50.389 38.2652 50.6718C37.9137 51.0018 37.5623 51.2846 37.2108 51.6145C36.8594 51.9445 36.5079 52.2745 36.1564 52.6516C35.805 52.9815 35.4535 53.3586 35.146 53.7357C34.7945 54.1128 34.487 54.4899 34.1795 54.8198C33.8719 55.1969 33.6084 55.5269 33.3448 55.904C33.1251 56.2339 32.9054 56.5168 32.7297 56.8467L32.6858 56.7996C33.6084 54.9141 34.7506 52.6987 35.805 50.5775C37.8698 46.5238 39.5832 44.9683 41.9994 43.5071C43.5371 42.5643 47.9303 40.5375 51.1813 39.0762C49.468 41.0088 48.0621 43.1771 46.7881 45.1097Z" fill="#00A1C2"/>
<path d="M153.808 33.9383C153.72 33.9383 147.174 32.1943 143.571 28.8004C140.276 25.6894 136.191 22.3899 130.963 21.7771C129.205 21.5414 126.965 21.73 125.383 21.9185C123.802 22.107 122.088 22.3899 120.77 22.7198C120.155 22.8612 119.672 23.0026 119.321 23.1441C117.519 22.8612 115.85 22.4841 113.961 22.0128C111.808 21.4943 109.348 20.8815 106.053 20.3159C105.218 20.1744 104.384 19.9859 103.593 19.8445C100.43 19.1846 97.1786 18.5718 93.005 19.0432C91.731 19.1846 90.369 19.4674 88.8753 19.8445C90.369 18.3833 93.0929 16.3092 96.6953 15.885C97.3982 15.7907 98.1451 15.7907 98.848 15.8379C103.285 16.1678 105.658 16.8749 107.591 17.4405C109.304 17.959 110.666 18.3361 112.643 18.1947C117.871 17.7705 127.712 10.5115 128.107 10.1815L132.105 7.21189L127.58 9.09736C127.053 9.33304 126.438 9.47445 125.647 9.56872C122.747 9.89868 118.705 9.23877 115.147 8.62599C113.697 8.39031 112.335 8.15462 111.193 8.01322C109.875 7.87181 108.381 7.8718 106.8 8.06035C102.626 8.53172 98.1451 10.1815 95.3773 12.2084C92.1703 14.5181 90.413 15.885 87.6013 19.3731C87.162 19.7974 86.8544 20.1744 86.5909 20.5044C84.9214 21.07 83.1202 21.7771 81.1432 22.7198C78.8587 23.804 66.1623 31.4872 60.9782 36.0123C62.0326 32.9485 64.0974 27.6692 67.2606 25.5009C69.8087 23.804 71.2584 23.2383 72.6643 22.7198C74.2898 22.107 75.8713 21.5414 78.683 19.1846C83.7792 14.9423 91.9945 4.05374 92.346 3.62951L95.0698 0L91.5552 2.73392C88.6996 4.94934 84.7896 6.50485 79.6495 8.48458L79.3859 8.57885C73.9383 10.6529 67.1288 13.1982 64.0974 21.7771C63.3945 23.7568 62.7795 25.4537 62.2523 26.9621C60.495 31.8643 59.4845 34.5511 59.0891 37.4736C59.0891 37.5678 59.0452 37.6621 59.0452 37.7564C56.8486 39.7833 54.8716 41.8573 53.1582 43.9313L52.8068 44.4026C51.0934 46.5238 49.7315 48.6921 48.8529 50.7189L50.5662 51.5674C51.5767 49.3048 53.1583 46.9009 55.1791 44.544C55.5745 44.4969 56.4971 44.3084 57.5954 43.9784C58.6059 43.8841 59.8799 43.837 61.4176 43.7899C64.1414 43.7427 65.9865 44.6855 67.7878 45.5811C69.6769 46.5238 71.4781 47.4194 73.9822 47.1366C74.5973 47.0894 75.2123 46.948 75.8274 46.7123C83.0323 44.4026 97.0468 39.5476 97.2225 39.5004L101.352 38.0392H97.0468C96.915 38.0392 83.9549 38.0863 79.5617 37.2379C79.1223 37.1436 78.6391 37.0493 78.1558 36.9551C75.4759 36.3894 72.1371 35.6824 68.8421 36.0595C65.7669 36.4366 63.3067 37.7093 61.4615 39.8775C60.6707 40.8203 59.6603 41.4802 58.6937 41.9515C58.3862 42.0929 58.0787 42.1872 57.7712 42.3286C57.6394 42.3758 57.5076 42.4229 57.3758 42.47C57.244 42.47 57.0682 42.5172 56.9364 42.5172C61.11 38.0863 66.5577 33.7498 72.0931 30.1203C72.1371 30.1203 72.2249 30.1203 72.2689 30.1203C72.3567 30.1203 72.4007 30.1203 72.4885 30.0731C72.84 30.026 73.1915 29.9789 73.499 29.9317C74.6412 30.1674 75.8713 30.6859 77.1893 31.393C80.5721 33.2313 84.7896 33.8441 89.754 33.2784C96.4757 32.4771 102.143 29.7903 102.363 29.6489L105.174 28.2819L102.143 28.4705C102.099 28.4705 99.0677 28.6119 94.5866 26.915C91.1598 25.5952 87.9528 25.1238 85.0532 25.4537C83.8231 25.5952 82.6369 25.9251 81.5386 26.3965C79.2102 27.3863 77.1454 28.0463 74.773 28.5176C77.1454 27.1035 79.5177 25.8308 81.7583 24.7467C90.0615 20.8344 95.0698 20.693 99.5509 21.3529C99.6827 21.4471 99.8145 21.4943 99.9902 21.5885C100.298 21.7771 100.693 22.0128 101.089 22.2956C101.132 22.2956 101.176 22.3427 101.176 22.3427C102.626 23.7568 104.955 26.4907 107.107 31.0159C110.886 38.8877 118.398 39.359 122.396 39.5947C122.835 39.6418 123.231 39.6418 123.626 39.689C127.097 40.0189 133.467 39.7361 133.774 39.7361L138.387 39.5476L133.906 38.5106C133.511 38.4163 133.159 38.322 132.808 38.2749C130.084 37.6621 128.107 37.2379 125.515 34.6454C124.856 33.9383 124.241 33.2784 123.626 32.6656C121.517 30.4031 119.716 28.4705 116.465 27.0093C114.18 25.9722 111.852 25.7366 109.787 25.548C108.601 25.4537 107.547 25.3123 106.712 25.0766C106.404 24.841 106.097 24.6053 105.833 24.3696C105.394 24.0396 104.911 23.7097 104.471 23.4269C104.252 23.0498 103.944 22.6256 103.197 22.0599C103.988 22.2013 104.779 22.3899 105.57 22.5313C108.777 23.0969 111.193 23.6626 113.346 24.1811C115.454 24.6996 117.3 25.1238 119.364 25.4066C120.946 26.2551 126.042 29.4603 128.678 32.0057C134.082 37.2379 146.822 36.3423 152.05 35.7295C152.973 35.6352 153.544 35.541 153.544 35.541L157.015 34.9753L153.808 33.9383ZM96.0363 13.1982C98.6723 11.3128 102.934 9.75727 106.932 9.2859C108.469 9.09735 109.875 9.09736 111.105 9.23876C112.247 9.38017 113.609 9.61586 115.015 9.85154C118.354 10.4172 122.132 11.03 125.12 10.8414C121.913 13.0097 116.289 16.4978 112.819 16.922C112.731 16.922 112.687 16.922 112.643 16.922C110.842 17.0634 109.655 16.7335 107.986 16.215C106.009 15.6493 103.549 14.8952 99.0237 14.5652C98.2329 14.5181 97.4422 14.5181 96.6514 14.6123C96.4317 14.6595 96.1681 14.7066 95.9485 14.7066C95.9485 14.7066 95.9485 14.7066 95.9924 14.7066C96.6074 14.5652 97.2664 14.4709 97.9254 14.3295C98.5844 14.1881 99.2873 14.141 99.9902 13.9996C100.693 13.9053 101.44 13.811 102.143 13.7639C102.846 13.6696 103.593 13.6225 104.296 13.6225C104.999 13.5753 105.701 13.5753 106.36 13.5753C107.019 13.6225 107.722 13.6225 108.337 13.6225C108.645 13.6225 108.952 13.6225 109.26 13.6225C109.568 13.5753 109.875 13.5753 110.139 13.5753C110.402 13.5282 110.71 13.4811 110.929 13.4339C111.193 13.3868 111.413 13.3396 111.632 13.2454C112.072 13.1511 112.467 13.0097 112.775 12.9154C113.39 12.7269 113.741 12.6326 113.741 12.6326C113.741 12.6326 113.653 12.6326 113.478 12.6326C113.302 12.6326 113.038 12.6326 112.731 12.6797C112.423 12.7269 112.028 12.7269 111.588 12.774C111.369 12.774 111.149 12.8211 110.885 12.8211C110.622 12.8211 110.402 12.8211 110.095 12.8211C109.831 12.8211 109.568 12.774 109.26 12.774C108.952 12.7269 108.689 12.7269 108.381 12.6797C107.766 12.6326 107.107 12.4912 106.404 12.4441C105.701 12.3969 104.955 12.3498 104.252 12.3498C103.505 12.3498 102.758 12.3969 102.011 12.4912C101.264 12.5855 100.517 12.6797 99.8145 12.774C99.0677 12.8683 98.3647 13.0568 97.7058 13.1982C96.6074 13.4339 95.597 13.7639 94.7184 14.0938C95.1137 13.8581 95.5531 13.5753 96.0363 13.1982ZM92.9611 15.5551C93.3125 15.4137 93.7518 15.2722 94.1912 15.178C94.2351 15.178 94.2351 15.178 94.279 15.178C93.7518 15.3194 93.2686 15.5079 92.7853 15.7436C92.8732 15.6493 92.9171 15.6022 92.9611 15.5551ZM63.3945 27.2921C63.9217 25.7837 64.5368 24.0868 65.2397 22.107C68.0514 14.141 74.2898 11.7841 79.7813 9.71013L80.0449 9.61586C83.7352 8.20176 86.7666 7.02335 89.3147 5.60925C86.4591 9.19163 81.4508 15.3194 78.024 18.1476C75.3441 20.363 73.9822 20.8815 72.3567 21.4943C70.9509 22.0128 69.3693 22.6256 66.6894 24.4167C66.5576 24.511 66.4259 24.6053 66.338 24.6996C66.5576 24.4167 66.7773 24.1811 66.953 23.8982C67.3924 23.2855 67.9196 22.7198 68.4467 22.107C68.6664 21.8714 68.9739 21.5885 69.2375 21.3057C69.3693 21.1643 69.5011 21.0229 69.6329 20.9286L70.0722 20.5515C70.3798 20.3159 70.6434 20.0802 70.907 19.8445C71.2145 19.6088 71.4781 19.4203 71.7856 19.1846C72.0492 18.9489 72.3567 18.7603 72.6203 18.5718C72.8839 18.3833 73.1915 18.1947 73.455 18.0062C73.9822 17.6291 74.5094 17.2991 74.9927 16.9692C75.4759 16.6392 75.9153 16.3564 76.3107 16.1207C76.7061 15.885 77.0575 15.6493 77.3211 15.4608C77.8922 15.1308 78.2437 14.8952 78.2437 14.8952C78.2437 14.8952 77.8922 14.9894 77.2332 15.2251C76.6182 15.4608 75.6956 15.8379 74.6852 16.3092C74.158 16.5449 73.5868 16.8277 73.0157 17.1577C72.4446 17.4877 71.8295 17.8176 71.2145 18.2418C70.907 18.4304 70.5994 18.6661 70.2919 18.8546C69.9844 19.0903 69.6769 19.326 69.3693 19.5617L68.93 19.9388C68.7543 20.0802 68.6225 20.2216 68.4907 20.363C68.1832 20.6458 67.9196 20.9286 67.612 21.2115C67.0848 21.8242 66.6016 22.3899 66.1183 23.0969C65.6351 23.7568 65.1957 24.4167 64.8004 25.0295C64.361 25.6423 64.0096 26.3022 63.6581 26.915C63.4824 27.2449 63.3067 27.5278 63.1309 27.8106C63.2627 27.6692 63.3506 27.4806 63.3945 27.2921ZM62.6037 40.726C64.2292 38.7934 66.338 37.7093 69.1057 37.3793C72.2249 37.0022 75.432 37.7093 78.024 38.2278C78.5512 38.322 79.0345 38.4163 79.4738 38.5106C82.3733 39.0762 88.7435 39.2648 92.9611 39.3119C88.2164 40.9617 80.4403 43.6013 75.6517 45.1097C75.0806 45.2982 74.5534 45.3925 74.0262 45.4868C71.8735 45.7225 70.2919 44.9683 68.4907 44.0727C66.8212 43.2714 64.9761 42.3286 62.4719 42.1872L63.1749 41.9515C63.8778 41.8573 64.5807 41.763 65.3275 41.6687C66.0744 41.5744 66.7773 41.5273 67.5242 41.3859C67.8756 41.3388 68.2271 41.2916 68.6225 41.2445C68.9739 41.1974 69.3254 41.1502 69.6769 41.0559C70.3358 40.9145 70.9948 40.7731 71.6538 40.6789C71.9613 40.6317 72.2689 40.5846 72.5764 40.5374C72.8839 40.4903 73.1475 40.4432 73.4111 40.4432C73.6747 40.4432 73.9383 40.396 74.2019 40.396C74.4655 40.396 74.6852 40.396 74.9048 40.396C75.3441 40.396 75.7395 40.396 76.0471 40.396C76.706 40.4432 77.0575 40.4432 77.0575 40.4432C77.0575 40.4432 76.7061 40.3489 76.091 40.2075C75.7835 40.1604 75.3881 40.0661 74.9488 39.9718C74.7291 39.9247 74.4655 39.9247 74.2458 39.8775C73.9822 39.8775 73.7186 39.8304 73.455 39.8304C73.1915 39.8304 72.8839 39.8304 72.5764 39.8304C72.2689 39.8304 71.9613 39.8775 71.6538 39.8775C71.0388 39.9247 70.3358 40.0189 69.6769 40.1132C69.3254 40.1604 68.9739 40.2075 68.6225 40.2075C68.271 40.2546 67.9196 40.2546 67.5681 40.3018C66.8652 40.3489 66.1183 40.396 65.3715 40.4903C64.6246 40.5846 63.8778 40.6317 63.1749 40.7731C62.9991 40.8203 62.7795 40.8203 62.6037 40.8674C62.5159 40.8203 62.5598 40.7731 62.6037 40.726ZM77.6286 29.7432C78.1119 29.7432 78.6391 29.696 79.1223 29.6489L79.8253 29.5075C80.0449 29.4604 80.3085 29.4132 80.5282 29.3661C80.9675 29.3189 81.4508 29.2247 81.8901 29.1775C82.3294 29.1304 82.7687 29.0833 83.1641 29.0833C83.3838 29.0833 83.5595 29.0833 83.7352 29.0833C83.911 29.0833 84.1306 29.0833 84.3064 29.0833C85.0093 29.0833 85.6243 29.0361 86.0637 29.0361C86.503 29.0361 86.7226 28.989 86.7226 28.989C86.7226 28.989 86.503 28.8947 86.0637 28.8004C85.6683 28.659 85.0532 28.5176 84.3503 28.3762C83.9988 28.2819 83.6035 28.2348 83.1641 28.1877C82.9445 28.1877 82.7248 28.1405 82.5051 28.1405C82.2855 28.1405 82.0658 28.1405 81.8022 28.1405C81.5826 28.1405 81.319 28.1405 81.0993 28.1877C80.8796 28.1877 80.616 28.2348 80.3524 28.2348C80.1328 28.2819 79.9131 28.2819 79.6935 28.3291C80.4403 28.0463 81.2311 27.7634 82.0219 27.4335C82.9884 27.0092 84.0867 26.7264 85.2289 26.585C87.9088 26.2551 90.9402 26.7264 94.2351 27.9991C96.3878 28.8476 98.233 29.2247 99.5949 29.4604C97.3104 30.3088 93.7079 31.4872 89.7101 31.9586C84.9654 32.5242 80.9236 31.9115 77.7604 30.2145C77.4529 30.0731 77.1893 29.9317 76.8818 29.7903C77.2332 29.7432 77.409 29.7432 77.6286 29.7432ZM106.36 26.0665C106.492 26.1608 106.624 26.3022 106.8 26.3965C107.327 26.7736 107.81 27.1978 108.337 27.5749C108.601 27.7634 108.865 27.952 109.084 28.1405C109.348 28.3291 109.611 28.5176 109.875 28.659C110.007 28.7533 110.139 28.8004 110.27 28.8947C110.402 28.989 110.534 29.0361 110.666 29.1304C110.929 29.2718 111.149 29.4132 111.413 29.5075C111.632 29.6489 111.896 29.7432 112.116 29.8846C112.335 29.9788 112.555 30.1203 112.775 30.2145C112.994 30.3088 113.214 30.4031 113.39 30.4974C113.609 30.5916 113.785 30.6388 113.961 30.6859C114.312 30.8273 114.664 30.9216 114.927 30.9687C115.454 31.1101 115.762 31.1573 115.762 31.1573C115.762 31.1573 115.498 30.9687 115.015 30.733C114.752 30.5916 114.488 30.4502 114.137 30.2617C113.961 30.1674 113.785 30.0731 113.609 29.9317C113.434 29.7903 113.258 29.696 113.038 29.5546C112.643 29.2718 112.247 28.989 111.764 28.659C111.325 28.3291 110.842 27.9991 110.358 27.6692C110.095 27.4806 109.875 27.2921 109.655 27.1507C109.436 26.9621 109.172 26.7736 108.952 26.585C108.909 26.5379 108.909 26.5379 108.865 26.4907C109.172 26.5379 109.48 26.5379 109.787 26.585C111.764 26.7736 114.005 27.0093 116.113 27.952C119.145 29.3189 120.902 31.2044 122.923 33.3727C123.538 34.0326 124.153 34.6925 124.856 35.3996C126.525 37.0493 127.931 37.9449 129.425 38.4634C127.536 38.4634 125.427 38.4634 123.933 38.322C123.582 38.2749 123.143 38.2749 122.703 38.2278C118.881 37.9921 111.808 37.5678 108.337 30.2617C107.503 28.5648 106.668 27.1035 105.877 25.878C106.009 25.9251 106.185 25.9722 106.36 26.0665ZM129.733 30.733C127.931 28.989 124.724 26.7264 122.308 25.2181C122.352 25.2181 122.44 25.2652 122.484 25.2652C123.011 25.4537 123.626 25.5951 124.241 25.7837C124.856 25.9722 125.515 26.2079 126.174 26.3965C126.833 26.585 127.536 26.8678 128.239 27.0564C128.942 27.2921 129.645 27.5278 130.348 27.8106C130.699 27.952 131.05 28.0934 131.402 28.1877C131.753 28.3291 132.105 28.5176 132.456 28.659C133.115 28.989 133.818 29.2718 134.433 29.5546C135.092 29.8846 135.751 30.0731 136.366 30.3559C136.674 30.4502 136.981 30.5916 137.245 30.6859C137.552 30.7802 137.816 30.8744 138.124 30.9687C138.695 31.1573 139.178 31.2987 139.617 31.393C140.057 31.4872 140.452 31.5344 140.803 31.5815C141.462 31.6758 141.858 31.7229 141.858 31.7229C141.858 31.7229 141.506 31.5815 140.891 31.3458C140.584 31.2044 140.188 31.063 139.749 30.9216C139.31 30.733 138.87 30.4974 138.343 30.2617C138.08 30.1674 137.816 30.026 137.552 29.8846C137.289 29.7432 136.981 29.6018 136.718 29.4604C136.147 29.1775 135.532 28.8947 134.873 28.5176C134.565 28.3291 134.258 28.1877 133.906 27.9991C133.555 27.8106 133.291 27.6692 132.896 27.4806C132.544 27.3392 132.193 27.1507 131.885 27.0093C131.534 26.8678 131.182 26.7264 130.787 26.585C130.04 26.3022 129.337 26.0665 128.59 25.8308C127.887 25.5952 127.141 25.4066 126.438 25.2181C125.735 25.0295 125.076 24.8881 124.417 24.7467C123.758 24.6053 123.143 24.511 122.572 24.4167C122 24.3225 121.473 24.2753 121.034 24.2282C120.946 24.2282 120.902 24.2282 120.814 24.2282C120.726 24.1811 120.638 24.1339 120.551 24.0868C121.649 23.804 123.362 23.474 125.427 23.1912C126.921 23.0026 129.074 22.8612 130.699 23.0498C135.532 23.6625 139.442 26.7736 142.605 29.7432C144.801 31.8172 147.921 33.2784 150.205 34.174C145.065 34.7868 134.258 35.1167 129.733 30.733Z" fill="#00A1C2"/>
<path d="M160.969 45.2983C159.826 44.6383 158.684 44.0727 157.498 43.6013C153.764 42.093 150.293 41.0088 146.91 40.3489C147.218 40.2075 147.525 40.1132 147.877 39.9718C148.799 39.6419 149.722 39.4062 150.557 39.3119C152.138 39.0762 153.5 39.2176 154.642 39.7361C155.741 40.2075 156.619 40.726 157.454 41.1974C159.651 42.4701 161.584 43.5542 165.933 43.3657C169.667 43.2242 174.719 43.6485 178.454 44.0727L178.849 44.1198C178.849 44.1198 179.244 44.167 179.464 44.167L179.728 44.2141L179.464 44.167C181.792 44.4498 183.418 44.6855 183.462 44.6855L186.625 45.1568L183.813 43.5071C183.726 43.4599 175.993 38.9348 169.008 36.578C165.581 35.4467 162.945 35.1168 160.178 35.4939C159.079 35.6353 158.069 35.9181 156.971 36.1538C156.092 36.3894 155.169 36.578 154.115 36.7665C151.391 37.285 149.019 38.0864 147.525 38.652C145.988 39.1705 144.933 39.7833 144.889 39.7833L144.933 39.8776C143.088 39.5947 141.331 39.4533 139.529 39.359L139.442 41.0088C142.253 41.1031 145.021 41.4331 147.877 42.093L147.833 42.1872C147.877 42.2344 150.688 44.7326 151.259 48.315C151.743 51.3317 155.389 58.5436 159.387 62.2674L161.671 64.3886C164.922 67.4053 167.734 69.9978 168.613 70.8934L171.512 73.8159L169.491 70.0921C169.447 70.045 167.119 65.7555 164.791 59.4864C162.286 52.8401 158.64 47.8436 156.531 46.8538C155.345 46.2881 152.621 44.3084 150.688 42.8472C152.665 43.4128 154.73 44.167 156.883 45.0154C161.584 46.948 165.713 50.2005 169.184 53.83C169.184 54.0185 169.228 54.2542 169.272 54.4427C169.404 55.4326 169.579 56.6582 169.052 59.8163C168.393 64.0115 169.931 69.2436 171.688 72.3546C173.401 75.4185 175.598 84.6573 175.642 84.7516L176.652 88.9938L176.784 84.563C176.784 83.9974 177.136 71.082 176.74 67.8767C176.477 65.6613 175.115 63.0687 173.797 60.5234C173.138 59.2507 172.523 58.0723 172.039 56.941C175.203 60.7591 177.619 64.5771 179.157 67.311C179.64 68.7723 180.123 71.8361 180.606 74.7586C181.353 79.2837 182.144 83.9502 183.154 86.2599C183.769 87.674 184.648 89.1353 185.571 90.6908C187.416 93.8018 189.525 97.3842 190.315 101.579L191.502 107.943L191.677 101.391C191.677 100.872 191.985 88.5225 191.677 85.1287C191.37 81.782 190.623 79.0952 187.636 75.1828C183.023 69.1494 181.09 66.6511 180.167 65.6613C177.443 60.9476 172.918 54.4899 167.119 49.4463C167.734 49.6348 168.393 49.8705 169.184 50.1062C171.952 51.0489 174.763 55.7626 176.652 58.8736C177.399 60.0991 177.97 61.0419 178.41 61.6546C186.361 71.6476 192.82 72.0718 193.083 72.0718L194.489 72.119L193.566 70.9877C190.315 67.0282 189.173 64.2 188.163 61.6546C186.493 57.5066 185.307 54.537 176.257 50.2476C173.006 48.7392 165.142 47.5137 164.791 47.4194V47.4665C164.22 47.4194 160.969 45.2983 160.969 45.2983ZM155.916 38.8877C156.575 39.1705 157.278 39.4533 157.981 39.7361C158.333 39.8776 158.728 40.019 159.123 40.1132L159.431 40.2075C159.519 40.2075 159.607 40.2546 159.694 40.2546H159.826C159.914 40.2546 159.914 40.2546 160.002 40.2546C160.09 40.2546 160.178 40.2546 160.266 40.2546C160.617 40.3018 160.969 40.3018 161.32 40.3018C161.496 40.3018 161.671 40.3018 161.803 40.3018C161.979 40.3018 162.111 40.2546 162.286 40.2546C162.594 40.2075 162.858 40.1132 163.077 40.019C163.297 39.9247 163.517 39.8304 163.648 39.7361C163.956 39.5476 164.132 39.4533 164.132 39.4533C164.132 39.4533 163.956 39.4533 163.604 39.5005C163.429 39.5005 163.253 39.5476 163.033 39.5476C162.814 39.5476 162.55 39.5476 162.286 39.5476C162.023 39.5005 161.715 39.4533 161.408 39.4062C161.1 39.3591 160.749 39.2648 160.441 39.2176C160.353 39.2176 160.266 39.1705 160.178 39.1705C160.134 39.1705 160.09 39.1705 160.046 39.1705L159.914 39.1234C159.738 39.0762 159.563 39.0291 159.431 38.982C159.123 38.8877 158.728 38.7463 158.42 38.6049C157.718 38.322 157.015 38.0864 156.312 37.8507C156.224 37.8035 156.092 37.8035 156.004 37.7564C156.443 37.6621 156.839 37.5679 157.234 37.4736C158.289 37.2379 159.343 36.9551 160.353 36.8137C162.243 36.5309 164.615 36.4837 168.701 37.8507C172.962 39.2648 177.531 41.5273 180.387 43.0828C176.608 42.6115 170.37 41.9987 165.977 42.1401C161.935 42.2815 160.222 41.3388 158.069 40.0661C157.322 39.6419 156.443 39.1705 155.433 38.6991C155.565 38.6991 155.741 38.7934 155.916 38.8877ZM154.027 38.1335C154.071 38.1335 154.071 38.1335 154.115 38.1806C154.203 38.2278 154.291 38.2278 154.379 38.2749C154.247 38.2278 154.159 38.1806 154.027 38.1335ZM152.709 47.2309C153.061 47.6551 153.412 48.1736 153.808 48.645C154.159 49.1163 154.554 49.5877 154.906 50.1062C155.653 51.0961 156.356 52.0859 157.015 53.0287C157.322 53.5 157.674 53.9714 157.937 54.3956C158.201 54.867 158.508 55.2441 158.728 55.6683C158.992 56.0454 159.211 56.4225 159.387 56.7524C159.563 57.0824 159.738 57.3652 159.87 57.6009C160.134 58.0723 160.266 58.3551 160.266 58.3551C160.266 58.3551 160.178 58.0251 160.046 57.5066C160.002 57.2238 159.87 56.8938 159.738 56.5168C159.694 56.3282 159.607 56.1397 159.519 55.904C159.431 55.7154 159.343 55.4798 159.255 55.2441C159.079 54.7727 158.86 54.3485 158.596 53.83C158.376 53.3586 158.069 52.8401 157.761 52.3216C157.454 51.8031 157.146 51.2846 156.795 50.7661C156.443 50.2476 156.092 49.7291 155.741 49.2106C154.994 48.2207 154.203 47.2309 153.412 46.3824C154.467 47.0894 155.433 47.7022 156.004 48.0322C157.63 48.7864 161.232 53.4057 163.692 60.0049C164.879 63.1159 166.021 65.8027 166.943 67.6881C165.669 66.5097 164.088 65.0485 162.418 63.493L160.134 61.3718C156.356 57.8837 152.841 50.9546 152.358 48.1265C152.226 47.3723 152.05 46.7124 151.787 46.0524C152.138 46.4767 152.402 46.8538 152.709 47.2309ZM181.661 71.1291C181.792 71.459 181.924 71.8361 182.1 72.2132C182.276 72.6375 182.408 73.0617 182.583 73.5331C182.759 74.0044 182.891 74.4758 183.067 74.9472C183.242 75.4185 183.418 75.937 183.55 76.4084C183.901 77.3983 184.253 78.3881 184.56 79.2837C184.868 80.2265 185.175 81.0749 185.483 81.8291C185.746 82.5833 186.01 83.1961 186.186 83.6203C186.361 84.0445 186.449 84.2802 186.449 84.2802C186.449 84.2802 186.318 83.1961 186.01 81.6406C185.922 81.2635 185.834 80.8392 185.746 80.3679C185.659 79.9436 185.527 79.4723 185.395 79.0009C185.263 78.5295 185.131 78.011 184.956 77.5397C184.824 77.0212 184.648 76.5498 184.472 76.0313C184.297 75.5128 184.121 75.0414 183.945 74.5701C183.769 74.0987 183.55 73.6273 183.374 73.156C183.154 72.6846 182.979 72.2604 182.759 71.8833C182.583 71.5062 182.408 71.1762 182.188 70.8934L182.276 70.8463C183.594 72.5432 185.087 74.5229 186.581 76.4555C189.393 80.1322 190.052 82.5362 190.315 85.6472C190.491 87.674 190.447 93.2361 190.403 97.2427C189.393 94.6031 187.987 92.2934 186.713 90.1723C185.79 88.6639 184.956 87.2027 184.385 85.8828C183.462 83.7617 182.671 78.9538 181.968 74.7115C181.749 73.4388 181.573 72.3546 181.397 71.3176L181.661 71.1291ZM170.238 60.1463C170.282 59.7692 170.326 59.4392 170.37 59.1093C170.414 59.4392 170.458 59.8163 170.546 60.1934C170.634 60.6176 170.678 61.0419 170.765 61.4661L170.809 61.7961L170.853 62.126C170.897 62.3617 170.941 62.5502 170.985 62.7388C171.029 62.9273 171.073 63.163 171.117 63.3516C171.161 63.5401 171.249 63.7287 171.293 63.9172C171.381 64.1057 171.424 64.2943 171.468 64.4357C171.556 64.6242 171.6 64.7657 171.688 64.9071C171.952 65.5198 172.215 65.9912 172.391 66.3212C172.567 66.6511 172.698 66.8397 172.698 66.8397C172.698 66.8397 172.655 66.604 172.611 66.2269C172.567 65.8498 172.435 65.2842 172.303 64.6714C172.215 64.3414 172.171 64.0115 172.127 63.6344C172.083 63.4458 172.039 63.2573 172.039 63.0687C171.996 62.8802 171.996 62.6917 171.952 62.5031C171.908 62.3146 171.908 62.126 171.864 61.8903C171.82 61.7018 171.82 61.4661 171.776 61.2776C171.732 60.8533 171.644 60.4291 171.6 60.0049C171.512 59.5806 171.468 59.1564 171.381 58.7793C171.776 59.6278 172.259 60.5705 172.742 61.419C174.016 63.8229 175.334 66.3212 175.554 68.348C175.818 70.3278 175.73 76.4084 175.686 80.6035C174.851 77.6339 173.709 73.7687 172.655 71.9304C171.029 68.8194 169.623 63.8229 170.238 60.1463ZM182.144 59.9577C182.1 59.8163 182.012 59.6278 181.88 59.3921C181.749 59.1564 181.617 58.8736 181.397 58.5436C181.221 58.2608 181.002 57.8837 180.738 57.5066C180.475 57.1295 180.211 56.7524 179.903 56.3754C179.596 55.9983 179.244 55.574 178.893 55.1498C178.542 54.7256 178.146 54.3013 177.707 53.9242C177.487 53.7357 177.267 53.5472 177.048 53.3115C176.828 53.0758 176.608 52.9344 176.345 52.7458C175.906 52.4159 175.378 52.0388 174.895 51.756C174.412 51.426 173.929 51.1903 173.445 50.9075C173.401 50.9075 173.401 50.8604 173.357 50.8604C174.28 51.1432 175.071 51.426 175.73 51.7088C184.428 55.8097 185.483 58.4494 187.064 62.5031C187.943 64.6714 188.997 67.3582 191.546 70.752C189.217 70.045 184.604 67.8295 179.244 61.089C178.849 60.5705 178.234 59.5806 177.575 58.4494C176.389 56.4225 174.895 53.9714 173.27 52.0859C173.357 52.1802 173.489 52.2273 173.577 52.3216C173.797 52.463 174.016 52.6516 174.236 52.793C174.456 52.9344 174.675 53.1229 174.895 53.2643C175.115 53.4057 175.334 53.5943 175.554 53.7828C175.774 53.9714 176.037 54.1128 176.213 54.3013C176.433 54.4899 176.652 54.6313 176.828 54.8198C177.224 55.1969 177.663 55.574 178.014 55.9511C178.41 56.3282 178.761 56.7053 179.113 57.0353C179.464 57.3652 179.772 57.6952 180.079 58.0251C180.387 58.3551 180.65 58.6379 180.914 58.8736C181.134 59.1093 181.353 59.345 181.529 59.5335C181.88 59.9106 182.056 60.1463 182.056 60.1463C182.056 60.1463 182.232 60.0991 182.144 59.9577Z" fill="#00A1C2"/>
<path d="M185.219 107.801C187.152 110.441 190.535 115.579 190.447 120.01C190.359 123.451 189.964 125.195 189.525 126.892C189.041 128.871 188.602 130.71 188.91 134.811C189.437 142.164 193.654 156.258 193.83 156.87L195.148 161.207L194.972 156.588C194.797 152.534 195.851 147.82 197.301 141.598L197.389 141.268C198.926 134.716 200.859 126.562 195.455 118.926C194.181 117.134 193.127 115.626 192.204 114.259C189.129 109.828 187.46 107.424 185.219 105.397C185.131 105.303 185.044 105.256 184.956 105.162C184.56 101.909 184.033 98.7982 183.286 96.0172L183.154 95.5458C182.364 92.6234 181.353 90.078 180.167 88.004L178.541 89.1824C179.859 91.3978 180.914 94.3203 181.705 97.6198C181.529 98.0441 181.09 99.0339 180.738 100.401C180.211 101.485 179.464 102.758 178.585 104.266C176.96 107 175.071 108.32 173.226 109.64C170.853 111.337 168.613 112.892 167.427 116.993C165.01 125.383 160.661 142.022 160.661 142.164L159.475 146.689L161.847 142.73C161.935 142.588 169.711 129.72 173.05 125.807C173.401 125.43 173.753 125.006 174.148 124.582C177.926 120.387 183.594 113.976 181.749 106.434C181.441 105.209 181.485 103.842 181.661 102.711V102.663C181.792 102.192 181.88 101.721 181.924 101.249C181.968 101.155 181.968 101.014 182.012 100.919C182.144 100.684 182.232 100.495 182.32 100.259C183.594 106.859 183.989 114.683 183.682 122.272C183.594 122.414 183.506 122.602 183.462 122.791C183.286 123.168 183.11 123.545 182.979 123.922C182.056 124.912 180.914 125.902 179.508 126.797C173.885 130.474 170.458 137.356 168.569 142.447C166.548 147.962 165.801 152.534 165.801 152.722L165.318 155.975L166.899 153.1C166.899 153.052 168.613 149.989 172.786 146.453C177.355 142.588 180.255 138.204 181.09 133.868C181.661 130.851 182.408 128.4 183.55 125.619C183.33 128.871 182.979 132.077 182.495 134.999C180.826 145.275 177.926 150.318 174.719 154.419C174.544 154.561 174.324 154.702 174.104 154.844C173.753 155.079 173.314 155.315 172.874 155.551C172.83 155.598 172.742 155.598 172.698 155.645C171.512 156.022 170.15 156.305 168.745 156.541C166.548 156.87 164.22 156.918 161.847 156.776C160.793 156.729 159.782 156.729 158.772 156.87C151.743 157.86 147.745 163.752 145.372 167.241C145.065 167.665 144.801 168.042 144.582 168.419C142.209 171.718 141.287 174.028 141.155 174.311L139.749 177.233C139.749 177.233 143.923 174.122 147.745 172.944C148.755 172.661 149.678 172.378 150.557 172.143C153.72 171.294 156.487 170.587 159.651 168.136C161.891 166.439 163.517 164.224 164.922 162.338C165.713 161.207 166.46 160.217 167.207 159.51C167.558 159.322 167.954 159.18 168.305 158.992C168.876 158.756 169.404 158.426 169.975 158.19C170.106 158.19 170.238 158.19 170.458 158.143C170.941 158.049 171.512 157.86 172.171 157.53C172.127 157.578 172.083 157.625 172.039 157.672C171.424 158.379 170.765 159.133 170.106 159.887C167.69 162.763 165.713 164.884 164 166.722C162.33 168.513 160.837 170.116 159.387 171.954C157.805 173.038 151.918 176.385 148.096 177.658C144.186 178.93 139.661 182.796 134.697 189.065C131.051 193.684 128.459 198.021 128.415 198.068L127.228 200.095L129.249 199.105C129.337 199.058 136.542 195.617 141.726 193.826C146.339 192.223 151.567 190.007 155.257 185.2C157.234 182.654 160.397 175.914 161.1 172.897C162.418 171.247 163.78 169.833 165.318 168.183C167.075 166.298 169.052 164.224 171.512 161.254C172.127 160.5 172.786 159.793 173.401 159.086C176.652 155.409 179.947 151.638 182.364 144.238C182.803 147.066 182.935 152.063 179.772 156.635C176.828 160.83 174.763 162.857 173.138 164.459C171.688 165.874 170.502 167.005 169.447 169.079C166.68 174.5 166.855 188.216 166.899 188.782L166.987 193.967L168.042 188.876C168.745 185.53 172.742 180.674 175.949 176.762C177.004 175.489 178.014 174.264 178.849 173.18C182.276 168.655 184.912 160.783 184.868 155.221C184.824 150.79 184.736 148.244 183.462 143.625C183.33 142.918 183.198 142.4 183.11 141.928C183.638 139.996 184.121 137.827 184.516 135.376C184.868 131.7 185.878 115.437 185.219 107.801ZM191.238 115.06C192.161 116.427 193.259 117.983 194.489 119.774C199.541 126.939 197.784 134.433 196.202 141.033L196.114 141.363C195.06 145.888 194.225 149.659 193.874 152.958C192.556 148.197 190.359 139.713 190.008 134.669C189.744 130.804 190.14 129.107 190.579 127.174C190.974 125.478 191.458 123.592 191.502 120.01C191.502 119.727 191.502 119.444 191.502 119.161C191.502 119.208 191.546 119.303 191.546 119.35C191.677 119.727 191.765 120.151 191.897 120.528C192.161 121.282 192.336 122.178 192.512 122.979C192.6 123.356 192.644 123.781 192.732 124.205C192.776 124.393 192.82 124.629 192.82 124.818C192.82 125.006 192.863 125.242 192.863 125.43C192.907 125.855 192.951 126.279 192.951 126.656C192.951 127.08 192.995 127.457 192.995 127.881C192.995 128.306 192.995 128.683 192.995 129.06C192.995 129.437 192.995 129.814 192.995 130.191C192.951 130.945 192.951 131.652 192.907 132.265C192.863 132.925 192.863 133.491 192.82 134.056C192.776 134.575 192.776 135.046 192.732 135.423C192.688 136.178 192.644 136.649 192.644 136.649C192.644 136.649 192.776 136.225 192.951 135.47C193.127 134.716 193.347 133.632 193.566 132.359C193.654 131.7 193.742 130.993 193.83 130.238C193.874 129.484 193.962 128.683 194.006 127.834C194.006 127.41 194.006 126.986 194.05 126.562C194.05 126.137 194.006 125.713 194.006 125.242C194.006 125.006 193.962 124.818 193.962 124.582C193.962 124.346 193.918 124.158 193.874 123.922C193.786 123.451 193.742 123.074 193.654 122.555C193.435 121.707 193.259 120.905 192.995 120.057C192.776 119.208 192.468 118.454 192.161 117.7C191.897 116.946 191.546 116.239 191.282 115.532C191.062 115.013 190.799 114.495 190.579 114.023C190.799 114.4 191.018 114.73 191.238 115.06ZM173.138 123.639C172.742 124.063 172.347 124.488 172.039 124.912C169.755 127.552 165.625 134.009 163.033 138.157C164.483 132.595 167.031 123.121 168.657 117.464C169.667 113.882 171.644 112.515 173.885 110.912C175.642 109.687 177.619 108.32 179.288 105.68L178.981 106.811V106.859C178.629 107.613 178.278 108.414 177.926 109.168C177.575 109.922 177.18 110.724 176.828 111.478C176.652 111.855 176.477 112.232 176.301 112.656C176.125 113.033 175.993 113.411 175.818 113.788C175.51 114.542 175.247 115.249 174.939 115.956C174.807 116.286 174.675 116.616 174.544 116.946C174.412 117.276 174.236 117.559 174.104 117.841C173.973 118.124 173.797 118.407 173.665 118.643C173.533 118.878 173.401 119.114 173.27 119.35C173.006 119.774 172.742 120.151 172.567 120.481C172.127 121.094 171.908 121.471 171.908 121.471C171.908 121.471 172.215 121.188 172.698 120.622C172.962 120.34 173.226 120.01 173.577 119.585C173.753 119.397 173.885 119.161 174.06 118.926C174.236 118.69 174.412 118.407 174.588 118.171C174.763 117.889 174.939 117.606 175.115 117.276C175.291 116.946 175.466 116.663 175.642 116.333C175.993 115.673 176.301 114.966 176.652 114.259C176.828 113.882 177.004 113.552 177.18 113.175C177.355 112.798 177.531 112.468 177.751 112.091C178.146 111.337 178.542 110.582 178.893 109.828C179.288 109.074 179.64 108.273 179.991 107.471C180.123 107.189 180.211 106.953 180.299 106.67C180.343 106.764 180.343 106.906 180.387 107C182.056 113.646 176.696 119.68 173.138 123.639ZM180.606 127.881C180.299 128.353 180.035 128.871 179.772 129.437L179.42 130.238C179.332 130.474 179.2 130.757 179.113 130.993C178.893 131.464 178.673 131.982 178.454 132.407C178.234 132.878 178.014 133.302 177.751 133.726C177.619 133.915 177.531 134.151 177.399 134.339C177.267 134.528 177.18 134.716 177.092 134.905C176.652 135.612 176.301 136.225 176.037 136.649C175.774 137.073 175.642 137.356 175.642 137.356C175.642 137.356 175.862 137.167 176.213 136.837C176.565 136.507 177.048 135.989 177.575 135.376C177.839 135.046 178.146 134.716 178.41 134.292C178.542 134.104 178.717 133.868 178.849 133.679C178.981 133.491 179.113 133.255 179.288 133.019C179.42 132.784 179.552 132.548 179.684 132.312C179.816 132.077 179.947 131.794 180.079 131.558C180.211 131.275 180.299 131.04 180.431 130.757L180.606 130.333C180.299 131.417 180.079 132.501 179.816 133.679C179.025 137.733 176.301 141.834 171.952 145.511C169.843 147.302 168.349 148.952 167.383 150.177C168.613 144.804 172.171 132.972 179.991 127.834C180.387 127.599 180.738 127.316 181.09 127.08C180.958 127.316 180.782 127.599 180.606 127.881ZM166.372 158.426C166.196 158.52 165.977 158.567 165.801 158.662C165.142 158.944 164.527 159.227 163.912 159.51C163.604 159.652 163.297 159.793 162.989 159.981C162.682 160.17 162.374 160.311 162.067 160.453C161.935 160.547 161.803 160.641 161.628 160.689C161.452 160.783 161.364 160.877 161.188 160.971C160.925 161.16 160.661 161.301 160.397 161.49C160.134 161.678 159.914 161.82 159.651 161.961C159.431 162.15 159.167 162.291 158.948 162.433C158.728 162.574 158.508 162.715 158.333 162.904C158.157 163.093 157.981 163.234 157.805 163.375C157.454 163.658 157.19 163.941 156.971 164.177C156.531 164.648 156.268 164.884 156.268 164.884C156.268 164.884 156.575 164.695 157.102 164.365C157.366 164.177 157.674 163.988 158.025 163.752C158.201 163.658 158.377 163.517 158.596 163.422C158.816 163.328 159.035 163.187 159.255 163.092C159.694 162.857 160.222 162.574 160.749 162.291C161.276 162.008 161.847 161.726 162.418 161.443C162.726 161.301 162.989 161.16 163.297 161.018C163.604 160.877 163.912 160.736 164.22 160.594C164.307 160.547 164.395 160.5 164.483 160.453C164.22 160.783 164 161.113 163.736 161.49C162.374 163.328 160.837 165.449 158.728 167.052C155.741 169.315 153.061 170.022 150.029 170.87C149.107 171.106 148.184 171.341 147.174 171.671C144.626 172.426 143 173.463 141.594 174.735C142.737 172.803 144.098 170.587 145.197 169.126C145.46 168.796 145.724 168.372 146.031 167.948C148.316 164.601 152.138 159.039 158.64 158.096C159.563 157.955 160.529 157.907 161.496 158.002C163.341 158.096 165.142 158.096 166.855 157.955C166.768 158.096 166.548 158.285 166.372 158.426ZM154.071 184.257C150.644 188.735 145.636 190.903 141.199 192.411C137.684 193.637 133.247 195.57 130.655 196.748C133.643 192.176 141.331 181.24 148.272 178.978C150.908 178.129 154.95 176.055 157.674 174.5C157.542 174.641 157.454 174.735 157.322 174.877C156.839 175.348 156.356 175.819 155.828 176.338C155.301 176.856 154.73 177.375 154.159 177.941C153.588 178.506 152.929 179.025 152.314 179.637C151.699 180.203 151.04 180.769 150.381 181.334C150.073 181.617 149.722 181.9 149.414 182.136C149.063 182.371 148.755 182.654 148.404 182.89C147.745 183.361 147.042 183.88 146.427 184.351C145.768 184.822 145.153 185.341 144.582 185.812C144.318 186.048 144.011 186.284 143.747 186.519C143.483 186.755 143.22 186.991 143 187.226C142.517 187.651 142.121 188.122 141.726 188.499C141.375 188.876 141.067 189.253 140.804 189.536C140.32 190.149 140.057 190.479 140.057 190.479C140.057 190.479 140.408 190.196 140.979 189.678C141.287 189.442 141.638 189.159 142.034 188.829C142.429 188.499 142.912 188.169 143.439 187.745C143.967 187.368 144.494 186.944 145.109 186.519C145.724 186.095 146.339 185.671 146.998 185.2C147.349 184.964 147.657 184.728 148.008 184.54C148.36 184.304 148.667 184.115 149.063 183.833C149.414 183.597 149.766 183.314 150.073 183.078C150.425 182.796 150.776 182.513 151.084 182.23C151.787 181.664 152.402 181.052 153.017 180.486C153.632 179.873 154.247 179.26 154.818 178.695C155.389 178.082 155.916 177.516 156.443 176.951C156.927 176.385 157.41 175.819 157.805 175.301C158.201 174.782 158.596 174.311 158.904 173.887C158.992 173.792 159.035 173.698 159.123 173.604C159.211 173.557 159.343 173.463 159.431 173.415C158.508 176.055 156.224 181.429 154.071 184.257ZM183.33 150.224C183.33 150.413 183.374 150.601 183.374 150.743C183.242 151.214 183.11 151.733 182.935 152.298C182.759 152.911 182.495 153.571 182.276 154.231C182.012 154.891 181.705 155.645 181.441 156.352C181.134 157.106 180.782 157.813 180.431 158.615C180.079 159.369 179.728 160.123 179.332 160.877C178.981 161.631 178.585 162.385 178.146 163.092C177.751 163.8 177.355 164.507 176.916 165.167C176.477 165.826 176.037 166.486 175.642 167.099C175.466 167.429 175.247 167.712 175.071 168.042C174.895 168.372 174.763 168.655 174.588 168.937C174.456 169.22 174.324 169.503 174.192 169.786C174.104 170.069 173.973 170.352 173.885 170.587C173.709 171.106 173.577 171.53 173.489 171.907C173.27 172.614 173.138 173.038 173.138 173.038C173.138 173.038 173.182 172.944 173.27 172.755C173.357 172.567 173.489 172.331 173.665 172.001C173.841 171.671 174.016 171.247 174.28 170.776C174.412 170.54 174.544 170.304 174.675 170.069C174.807 169.833 174.983 169.55 175.115 169.315C175.291 169.079 175.466 168.796 175.642 168.513C175.862 168.23 176.037 167.948 176.257 167.665C176.696 167.099 177.136 166.486 177.619 165.826C178.102 165.167 178.541 164.459 178.981 163.705C179.42 162.951 179.816 162.197 180.211 161.443C180.606 160.689 180.958 159.887 181.309 159.086C181.661 158.285 181.968 157.53 182.232 156.729C182.715 155.409 183.11 154.089 183.33 152.958C183.33 153.618 183.374 154.372 183.374 155.126C183.418 160.359 180.826 168.042 177.619 172.284C176.828 173.368 175.818 174.547 174.763 175.819C172.171 178.93 169.36 182.371 167.734 185.435C167.822 181.004 168.261 173.085 170.106 169.503C171.073 167.665 172.083 166.628 173.533 165.261C175.203 163.611 177.311 161.584 180.343 157.295C182.1 154.985 182.935 152.487 183.33 150.224Z" fill="#00A1C2"/>
<path d="M101.22 70.8462C100.166 69.4321 95.9045 68.5837 92.9171 68.8194C90.0615 69.055 88.3042 70.4691 86.8984 70.422C86.8105 70.422 86.7666 70.422 86.7226 70.422C85.2729 70.2335 85.2729 70.3749 85.0093 70.9876C84.9214 71.2233 84.8335 71.8361 84.8335 72.5431C83.252 74.8528 81.1872 78.3881 80.3524 80.085C79.0345 82.7246 75.3002 89.8894 75.1245 92.529C74.9927 94.1788 74.9487 94.6502 75.2123 95.1687C72.3567 96.2528 68.4028 97.8555 68.0074 98.2797V99.0339C68.6225 100.071 69.1497 102.239 69.9844 102.239C70.8191 102.239 77.0136 100.212 78.4633 99.741C79.9131 99.2696 83.3398 98.1854 85.0532 98.044C86.7666 97.9026 89.5783 97.6669 90.5448 97.9969C91.5552 98.3269 91.1598 98.2797 91.6431 98.8454C92.1703 99.411 93.1807 98.4211 93.1807 97.3841C93.1807 96.3471 92.5657 93.2832 90.5008 92.7647C88.4799 92.2934 84.9653 92.7176 82.1537 93.2361C82.4173 92.3876 82.7687 91.3978 83.2959 90.3136C83.6913 89.4652 84.1746 88.5224 84.7018 87.5797C87.6452 86.7313 91.5113 86.7313 91.9945 86.307C92.6096 85.7414 92.3021 85.2229 90.9402 84.4687C89.9736 83.9031 87.9967 84.1387 86.4151 84.3744C87.5134 82.3476 88.5239 80.5092 89.0511 79.5665C90.0615 77.681 90.7644 77.0211 90.1494 75.0414C90.1054 74.9 90.0176 74.7114 89.9736 74.5229C90.7205 74.0987 91.6431 73.6744 92.6975 73.4859C94.8501 73.0145 97.0907 73.0145 98.848 73.4387C100.605 73.863 97.7497 76.644 96.915 77.6339C96.1242 78.6238 94.9819 80.9335 95.6409 82.2533C96.256 83.5731 98.189 83.3374 99.463 82.2061C100.737 81.0749 102.143 78.7652 102.45 77.3511C102.714 75.8899 102.275 72.3075 101.22 70.8462Z" fill="#00A1C2"/>
<path d="M136.41 73.1559C136.235 71.9775 133.115 68.7722 131.71 68.7722C131.182 68.7722 130.743 69.385 130.743 69.8092C130.743 70.2335 130.831 71.0348 130.435 72.3546C129.996 73.6744 128.59 77.5868 128.327 78.6709C128.107 79.4722 127.58 80.4621 126.921 82.866C126.657 83.3374 126.394 84.0445 126.174 84.563C125.823 85.3172 124.549 87.0612 124.065 87.5326C123.582 88.0039 122.703 89.2766 121.737 87.7211C120.77 86.1656 120.551 83.3374 120.814 81.4991C120.858 81.122 120.902 80.6978 120.902 80.3207C120.946 80.2264 120.99 80.1321 120.99 80.0379C121.21 79.0008 121.517 75.7956 121.341 74.9471C121.166 74.0987 121.122 72.6846 120.067 71.3176C119.013 69.9506 118.925 70.0449 118.53 69.9506C118.134 69.8564 116.07 69.9035 115.103 69.3379C114.093 68.7722 113.653 68.8665 113.302 69.6207C112.862 70.4691 113.521 70.4691 113.302 71.8361C113.126 73.2031 110.183 80.8863 109.568 82.4418C108.996 83.9973 107.635 88.0039 107.107 91.7277C106.58 95.4515 106.404 96.3 106.536 97.4313C106.712 98.6097 106.976 99.2696 106.932 99.8824C106.888 100.448 106.8 101.014 107.107 101.438C107.415 101.862 109.084 102.852 109.963 102.475C110.842 102.098 112.028 102.333 113.565 97.9497C115.103 93.566 116.07 90.1722 116.597 88.0982C116.641 88.0039 117.388 85.4114 117.431 85.3172C118.003 86.0713 118.969 89.2295 119.277 89.5123C120.023 90.1722 120.111 90.785 120.77 90.9264C121.429 91.0678 124.329 90.7379 125.998 88.381C126.042 88.2868 126.13 88.6167 126.174 88.5696C125.823 90.0308 125.603 91.0678 125.471 92.0106C125.295 93.4718 124.636 97.1484 124.592 98.4211C124.549 99.6938 124.856 101.532 125.164 101.815C125.471 102.098 127.228 103.182 128.151 102.381C129.074 101.579 129.733 100.307 130.216 99.081C130.655 97.6669 136.542 74.2872 136.41 73.1559Z" fill="#00A1C2"/>
<path d="M139.529 68.678C139.222 69.385 136.894 77.304 136.762 79.6136C136.63 81.6877 136.806 84.4216 137.684 86.0242C138.563 87.5797 139.793 88.4753 139.969 88.8524C140.188 89.2295 139.837 90.4551 139.573 91.115C139.266 92.0577 138.739 93.6603 138.431 95.1216C138.124 96.4414 137.992 97.337 137.86 98.2326C137.728 99.1282 137.728 99.6467 137.377 100.401C137.025 101.155 137.509 102.428 138.475 102.663C139.442 102.899 140.452 103.276 141.199 103.135C141.946 102.993 142.121 102.522 142.209 102.333C142.297 102.145 141.99 102.569 142.253 102.145C142.473 101.768 143.791 99.5053 144.142 98.3269C144.494 97.1485 146.69 90.785 146.339 89.5595C146.207 89.041 147.13 87.9568 147.569 87.5326C148.008 87.1084 149.81 84.8929 150.776 84.0916C151.743 83.2903 155.784 79.8493 156.312 79.1894C156.839 78.5295 158.508 75.8427 158.64 75.0414C158.772 74.2401 157.893 72.9203 156.927 71.8833C154.95 69.8092 153.5 70.3749 153.412 70.6106C153.368 70.7991 153.808 70.8463 153.632 71.459C153.456 72.0718 151.303 77.0211 150.117 78.5767C148.931 80.1322 146.822 82.6304 146.163 83.3374C145.46 84.0445 143.879 86.4956 143.659 86.967C143.439 87.4383 143.088 88.1925 142.868 87.344C142.649 86.5427 142.737 84.7987 142.824 83.4789C142.912 82.159 143.132 79.9907 144.538 77.9167C145.944 75.8427 147.218 74.1929 147.349 73.533C147.525 72.8731 146.954 70.7991 146.075 70.0449C145.197 69.2907 143.352 68.6308 142.165 68.6308C140.935 68.6308 140.32 68.8665 140.145 68.6308C139.969 68.4423 139.617 68.4894 139.529 68.678Z" fill="#00A1C2"/>
<path d="M64.2732 103.041C63.4384 103.276 56.8046 104.926 52.1917 110.394C46.9198 116.616 45.4261 122.649 45.6019 125.996C45.7776 129.343 46.8759 134.905 54.0808 135.895C61.2858 136.885 66.7334 123.592 66.997 122.979C67.2606 122.367 66.997 121.518 65.3715 121.094C63.746 120.67 56.7607 121.094 56.3653 121.848C55.926 122.602 56.8046 123.592 57.3758 123.922C57.9469 124.205 63.3945 122.791 63.3945 122.791C63.3945 122.791 64.1853 122.555 64.7564 122.696C65.3275 122.838 63.6581 124.912 62.7795 125.996C61.9008 127.08 57.903 133.114 55.3549 133.019C52.8068 132.878 52.8507 127.174 54.5202 123.733C56.1896 120.293 56.8046 118.218 58.4301 116.663C60.0556 115.107 62.8673 112.751 64.6686 111.949C66.5137 111.148 67.2606 110.394 67.4363 110.724C67.5681 111.007 66.338 113.788 65.8547 114.636C65.3715 115.485 64.8882 115.249 65.3715 115.485C65.8547 115.72 66.6016 115.862 67.4802 115.155C68.4028 114.448 70.0722 112.939 70.3358 110.63C70.5994 108.32 69.3693 107.189 68.5346 106.764C67.6999 106.293 67.4802 105.727 67.3924 105.492C67.1727 105.256 64.6686 102.946 64.2732 103.041Z" fill="#00A1C2"/>
<path d="M74.6851 104.549C74.2019 104.549 73.2793 105.02 73.1475 105.869C73.0157 106.717 73.3672 107 73.499 107.471C73.6308 107.943 72.181 110.771 71.6099 112.044C71.0387 113.363 69.1057 119.633 68.4907 121.989C67.8756 124.346 66.8652 130.238 69.3693 132.501C71.8735 134.763 73.8504 135.659 76.8378 134.622C83.9988 132.124 90.8523 115.909 91.7309 112.326C92.6096 108.744 93.0489 107.566 92.8732 107C92.7414 106.387 90.6765 105.492 89.4025 105.822C88.1285 106.152 87.2937 107.566 87.2059 108.037C87.118 108.508 84.9653 119.208 82.1536 124.299C79.342 129.39 76.75 132.831 75.3441 131.7C73.9383 130.615 78.1119 121.282 78.9027 119.303C79.6934 117.323 81.0993 112.138 81.2311 111.666C81.3629 111.195 81.4507 110.724 82.1097 110.205C82.7687 109.687 84.0867 108.32 84.0867 107.896C84.0867 107.471 82.7687 105.869 80.2206 105.539C77.6725 105.256 75.6077 104.313 74.8169 104.502" fill="#00A1C2"/>
<path d="M108.557 106.529C106.492 104.407 102.538 104.455 101.44 104.407C100.386 104.36 98.3208 104.973 97.4422 105.256C96.5635 105.586 95.6409 105.963 95.7288 106.293C95.8167 106.623 95.9924 107 96.1242 107.471C96.2999 108.037 93.2686 116.333 91.687 120.67C90.8084 120.811 90.5448 120.434 90.3251 120.717C90.0615 121.047 90.2372 121.282 90.5448 122.319C90.5887 122.508 90.7205 122.602 90.9402 122.744C90.8962 122.932 90.8084 123.074 90.8084 123.168C90.2372 124.865 89.3147 130.097 89.3147 130.097C89.3147 130.097 86.1076 130.898 85.1411 131.134C84.2185 131.37 83.3398 131.888 83.5595 132.312C83.7792 132.689 83.3838 133.208 83.7792 133.915C84.1746 134.669 85.0093 136.272 85.9319 135.895C86.8105 135.47 92.5217 133.585 95.4652 133.726C98.4087 133.821 103.812 132.737 104.559 132.218C105.306 131.7 105.57 130.804 105.658 129.201C105.745 127.599 103.856 126.279 103.856 126.279C103.856 126.279 103.725 126.75 103.505 127.599C103.285 128.447 100.342 128.966 99.6827 129.013C99.0237 129.107 96.871 128.73 96.0803 128.824C95.2895 128.918 93.4443 129.06 93.4443 129.06C93.4443 129.06 94.1472 127.363 94.6305 126.232C94.8501 125.76 95.5531 124.441 96.3439 123.026C97.8376 122.885 100.166 122.649 100.605 122.602C101.176 122.555 102.802 122.744 102.758 122.602C102.714 122.414 102.626 121.659 102.538 121.235C102.45 120.858 101.748 119.963 100.605 119.538C100.21 119.397 99.3313 119.303 98.3647 119.255C98.4965 119.02 98.5405 118.878 98.5844 118.831C98.6283 118.548 99.1555 117.323 100.474 115.579C101.791 113.788 103.066 109.357 103.329 109.074C103.593 108.744 107.239 109.734 107.239 109.875C107.239 110.017 107.019 111.007 106.317 111.808C105.614 112.609 104.647 114.542 105.35 116.239C106.053 117.936 107.019 117.04 107.239 116.757C107.459 116.427 108.03 116.239 108.381 116.05C108.733 115.862 110.358 113.222 110.71 111.761C110.973 110.252 110.622 108.65 108.557 106.529Z" fill="#00A1C2"/>
<path d="M113.082 121.471C113.302 121.518 115.323 122.979 115.235 123.451C115.147 123.875 112.862 126.09 112.116 126.75C111.325 127.41 109.655 129.154 109.787 129.814C109.963 130.474 110.226 132.407 115.147 129.578C120.067 126.75 121.913 124.723 122.044 123.686C122.22 122.649 120.331 121.471 118.134 121C115.982 120.528 111.237 118.69 111.501 114.353C111.764 110.017 115.015 107.754 116.992 106.953C118.969 106.199 122.835 105.303 126.042 106.01C129.249 106.67 129.381 106.34 129.733 106.34C130.04 106.34 131.973 106.246 131.841 109.31C131.709 112.374 130.831 113.882 129.733 115.107C128.59 116.333 127.756 117.37 127.14 117.04C126.525 116.757 127.316 114.966 127.756 114.306C128.151 113.646 128.854 112.798 126.262 112.798C123.67 112.798 118.618 112.656 116.509 114.212C114.4 115.767 115.103 116.474 116.509 116.899C117.959 117.323 123.274 118.124 124.768 119.397C126.262 120.67 129.513 123.733 126.13 130.097C122.088 137.686 112.335 138.11 108.381 134.292C103.109 129.201 110.622 124.111 110.622 124.111L113.082 121.471Z" fill="#00A1C2"/>
<path d="M65.4593 147.867C65.0639 147.679 66.1623 147.255 66.3819 146.925C66.6016 146.642 66.997 146.218 66.997 145.982C66.997 145.746 66.338 144.191 64.8443 143.955C63.3506 143.767 61.154 144.756 61.154 144.945C61.154 145.133 61.3736 146.029 61.3736 146.029C61.4615 146.123 61.5493 146.17 61.6811 146.218C61.7251 146.453 61.769 146.642 61.6811 147.019C61.5493 147.679 61.2418 148.952 61.1979 149.376C61.11 149.753 60.9782 150.79 61.4615 151.167C61.4615 151.214 61.4615 151.261 61.4615 151.261C61.4615 151.638 61.4615 151.874 61.4615 151.874C61.4615 151.874 63.3066 151.827 63.702 151.685C64.0974 151.544 67.1727 150.978 67.3045 149.753C67.4363 148.48 65.8547 148.056 65.4593 147.867ZM64.7564 145.133C65.2397 145.133 65.8108 145.039 65.9426 145.322C66.0744 145.605 64.3171 147.066 63.9656 147.255C63.6142 147.49 62.9113 147.82 62.5598 148.056C62.5159 148.103 62.4719 148.15 62.428 148.244C62.428 148.15 62.4719 148.009 62.4719 147.915C62.6477 146.878 62.8234 146.17 62.9113 145.746C63.3945 145.322 64.3171 145.133 64.7564 145.133ZM64.9321 149.989C63.6581 150.46 62.6916 150.271 62.2523 150.177C62.2523 149.989 62.2523 149.706 62.2962 149.423C62.6037 149.234 62.9991 149.046 63.3066 148.999C63.7899 148.952 65.5472 148.669 66.0305 148.857C66.4258 149.046 66.5576 149.423 64.9321 149.989Z" fill="#00A1C2"/>
<path d="M76.8818 145.181C77.1454 144.945 77.5408 145.652 77.5408 145.888C77.5408 146.123 76.5743 148.15 76.6182 148.292C76.6621 148.433 78.5512 148.669 78.683 148.527C78.8148 148.386 77.8044 144.709 77.6286 144.426C77.4529 144.144 77.7604 144.002 77.8922 144.144C78.024 144.285 78.9466 145.605 79.1223 146.123C79.2981 146.689 79.5617 147.962 79.6935 148.244C79.7813 148.527 80.0889 149.282 80.1767 149.753C80.2646 150.224 80.616 151.591 80.1767 151.78C79.7374 151.968 79.1223 151.167 79.0784 150.837C79.0345 150.507 79.0345 149.753 79.0345 149.753L75.8274 150.083C75.8274 150.083 75.2124 151.497 75.0806 151.685C74.9927 151.874 74.773 152.44 74.2898 151.403C73.8504 150.366 74.114 150.13 74.2898 149.941C74.4655 149.611 76.2228 145.746 76.8818 145.181Z" fill="#00A1C2"/>
<path d="M94.8062 144.662C94.8062 144.662 91.2477 147.066 90.7205 147.16C90.1933 147.255 90.1933 147.255 90.1933 147.255C90.1933 147.255 90.1933 145.982 90.1494 145.841C90.1055 145.699 89.1389 145.039 88.9193 145.039C88.6996 144.992 89.2268 145.463 89.1829 145.699C89.1389 145.935 88.3921 149.659 88.6557 150.177C88.9193 150.696 89.1829 151.308 89.4025 151.45C89.5783 151.591 89.754 151.638 89.8419 151.45C89.9297 151.261 89.8858 149.706 90.0176 149.47C90.1494 149.281 90.9402 149.093 91.8627 148.527C92.3021 149.14 93.4004 150.554 93.4883 150.696C93.6201 150.884 94.1912 151.497 94.4548 151.544C94.7184 151.591 94.8502 151.685 94.982 151.544C95.1138 151.403 94.982 150.743 94.8062 150.554C94.6305 150.413 94.1033 150.177 93.8397 149.8C93.62 149.517 92.8732 148.622 92.4339 148.103C93.5322 147.349 95.3334 146.218 95.5091 145.935C95.597 145.746 94.8062 144.662 94.8062 144.662Z" fill="#00A1C2"/>
<path d="M108.425 150.224C107.459 150.083 103.9 150.46 103.768 150.271C103.725 150.177 103.768 149.8 103.812 149.376C104.296 148.999 105.13 148.48 106.844 148.433C108.865 148.386 109.436 147.349 109.26 147.255C109.084 147.16 105.745 147.302 105.482 147.302C105.35 147.302 104.779 147.396 104.164 147.49C104.164 147.396 104.164 147.349 104.208 147.302C104.208 147.113 104.252 146.642 104.208 146.265C104.823 146.265 105.57 146.17 105.833 146.123C106.273 146.076 108.206 145.935 108.513 146.029C108.821 146.123 109.304 146.218 109.524 146.123C109.743 146.029 109.216 145.133 108.777 144.804C108.337 144.474 103.066 145.039 103.066 145.039C103.109 145.275 103.417 145.935 103.417 146.17C103.417 146.218 103.461 146.218 103.549 146.265C103.461 146.689 103.329 147.349 103.329 147.537C103.329 147.585 103.329 147.632 103.285 147.679C102.846 147.773 102.494 147.82 102.45 147.867V147.962C102.45 148.009 102.67 148.574 102.934 149.093C102.846 149.423 102.758 149.706 102.758 149.847C102.714 150.224 103.066 151.45 103.373 151.544C103.637 151.638 106.229 151.403 106.624 151.355C107.019 151.308 109.48 151.685 109.655 151.497C109.699 151.261 109.348 150.318 108.425 150.224Z" fill="#00A1C2"/>
<path d="M126.921 150.13C126.921 150.13 126.306 150.837 125.251 150.648C124.241 150.46 122.176 148.669 122.044 148.574C122 148.574 121.869 148.48 121.649 148.386C121.913 148.339 122.132 148.292 122.352 148.197C123.362 147.773 123.582 146.689 123.494 146.312C123.406 145.935 122.923 144.851 121.649 144.426C120.551 144.049 119.057 144.568 118.486 144.945C118.134 144.662 117.827 144.426 117.827 144.426C117.827 144.568 118.003 145.228 118.003 145.416C118.003 145.605 117.519 149.14 117.695 149.706C117.871 150.319 118.003 151.261 118.486 151.45C118.969 151.638 119.013 151.308 118.969 150.837C118.925 150.366 118.881 149.234 118.969 149.093C119.057 148.952 120.507 148.574 120.726 148.669C120.946 148.763 124.241 151.544 125.032 151.591C125.823 151.685 126.657 151.167 126.877 150.554C127.141 149.941 126.921 150.13 126.921 150.13ZM121.166 145.369C121.605 145.416 122.967 145.652 122.879 146.029C122.791 146.453 120.902 146.925 120.463 147.019C120.111 147.066 119.716 147.113 119.364 147.113C119.233 146.736 119.321 146.689 119.321 146.17C119.892 145.793 120.814 145.322 121.166 145.369Z" fill="#00A1C2"/>
<path d="M138.431 143.861C138.211 143.908 138.08 144.285 138.124 144.568C138.124 144.851 137.333 145.605 137.025 145.841C136.85 145.982 136.235 146.595 135.663 147.302C135.619 147.255 135.619 147.207 135.619 147.207C135.488 147.066 134.785 145.699 134.785 145.463C134.785 145.228 133.862 143.578 133.203 143.389C132.984 143.342 132.72 144.002 132.764 144.191C132.808 144.379 133.467 145.793 133.555 146.218C133.643 146.642 134.741 147.726 134.96 148.103C135.004 148.15 135.048 148.197 135.092 148.244C134.917 148.622 134.785 148.952 134.785 149.234C134.785 150.46 135.048 151.214 135.224 151.356C135.4 151.45 135.619 151.497 135.795 151.638C136.015 151.78 136.235 149.941 136.63 149.234C137.025 148.48 137.64 147.915 137.992 147.585C138.343 147.302 139.046 146.83 139.134 146.5C139.222 146.17 139.705 145.982 139.837 145.793C139.925 145.558 139.178 143.767 138.431 143.861Z" fill="#00A1C2"/>
<path d="M158.728 107.047C157.674 105.822 157.146 105.916 157.146 105.916C157.146 105.916 157.498 106.387 157.278 107.047C157.059 107.754 148.272 106.859 146.559 106.67C144.845 106.481 134.082 105.963 133.115 107.283C132.632 107.896 132.5 114.448 134.258 115.39C136.059 116.38 139.793 114.825 140.452 114.636C140.54 114.636 140.76 114.589 141.111 114.542C141.067 114.919 140.935 115.39 140.672 116.05C140.057 117.794 138.124 123.545 137.684 125.666C137.245 127.787 136.586 133.585 138.783 134.716C140.979 135.848 142.737 135.423 142.956 134.669C143.176 133.915 143.747 130.238 144.011 129.484C144.274 128.73 147.613 117.747 147.965 116.993C148.184 116.522 148.931 115.107 149.634 113.788C150.117 113.741 150.513 113.741 150.6 113.741C151.347 113.788 156.883 113.929 158.289 112.232C159.694 110.63 159.782 108.273 158.728 107.047Z" fill="#00A1C2"/>
<path d="M79.2541 60.9476C75.5638 59.6749 71.7856 60.5705 67.6999 62.5974C63.6142 64.6242 59.8799 67.7824 55.8821 72.0247C51.9282 76.267 48.8529 83.0075 48.765 83.526C48.765 83.526 51.2252 87.0141 51.6646 86.6841C51.9721 86.4956 56.3653 79.6608 61.813 74.2401C61.5494 75.3242 61.0661 76.644 60.3632 78.4824C58.8256 82.3947 58.0787 84.7515 57.4197 86.4013C56.7607 88.0982 56.8925 89.5123 56.2335 90.8793C55.5745 92.1991 54.7398 93.4718 55.4867 95.4515C55.7063 95.97 55.926 96.4885 56.2335 96.9128C56.2775 98.044 56.6729 99.1282 57.8151 99.9767C60.6268 102.004 65.4154 98.2326 68.2271 95.97C71.0388 93.7075 73.8944 89.5123 74.6412 86.5899C75.2124 84.3745 74.158 82.9132 73.1036 82.1119C73.1915 82.1119 73.2793 82.0648 73.3233 82.0648C74.158 81.6405 76.6182 79.4722 78.9905 76.8797C81.3629 74.2872 88.0846 63.9643 79.2541 60.9476ZM71.0388 87.3912C70.0283 89.1824 67.0409 91.6335 65.5472 93.0476C64.0535 94.4617 61.2418 96.63 60.9782 95.97C60.9343 95.8758 60.8904 95.7815 60.8025 95.6401C61.3736 94.4617 61.9887 93.0004 62.6037 91.2092C63.4824 88.6167 64.5368 86.1185 65.4154 84.0916C66.2501 83.6674 67.2606 83.2903 68.5346 83.0075C74.773 81.6877 72.0492 85.6 71.0388 87.3912ZM75.4759 71.9775C74.8609 72.6846 72.3567 75.3242 70.2919 77.304C69.2815 78.2938 68.1832 79.0009 67.2606 79.6136C67.2606 79.5665 67.3045 79.4722 67.3045 79.4251C67.7438 76.1255 67.612 73.9101 64.7564 71.6004C66.5577 70.0921 68.4028 68.8665 70.248 68.2066C76.3107 65.8969 77.409 66.4625 77.9362 66.8868C79.1223 67.8295 76.091 71.2705 75.4759 71.9775Z" fill="#00A1C2"/>
</svg>
